<svg width="178" height="98" fill="none" xmlns="http://www.w3.org/2000/svg"><g filter="url(#filter0_d)"><g filter="url(#filter1_d)"><rect x="4.5" y=".5" width="169" height="89" rx="3.5" stroke="#828282" stroke-linejoin="round"/></g><g filter="url(#filter2_d)"><path d="M61.402 36.83h-.003c-2.262 0-4.096 1.788-4.096 3.992v.003c0 2.204 1.834 3.992 4.096 3.992h.003c2.262 0 4.096-1.788 4.096-3.992v-.003c0-2.204-1.834-3.991-4.096-3.991z" fill="#AFB1B8"/><path d="M61.4 37.33h.002c1.998 0 3.596 1.576 3.596 3.492v.003c0 1.916-1.598 3.492-3.596 3.492h-.003c-1.998 0-3.596-1.576-3.596-3.492v-.003c0-1.916 1.598-3.491 3.596-3.491z" stroke="#828282" stroke-linejoin="round"/></g><g filter="url(#filter3_d)"><path d="M91.637 35.554c-.007-3.062-1.258-5.997-3.48-8.162-2.22-2.165-5.232-3.385-8.374-3.392-3.143.006-6.156 1.225-8.379 3.39-2.223 2.166-3.474 5.102-3.48 8.164V52.44s23.71-2.573 23.713-16.883v-.003z" fill="#AFB1B8"/><path d="M68.867 51.807c-.167.026-.316.047-.444.065V35.555c.007-2.926 1.202-5.734 3.33-7.807 2.128-2.073 5.015-3.242 8.03-3.248 3.013.007 5.899 1.177 8.026 3.25s3.322 4.88 3.328 7.806v.001s0 0 0 0c-.002 6.823-5.65 10.925-11.548 13.345-2.927 1.2-5.859 1.962-8.063 2.423a49.04 49.04 0 01-2.659.482z" stroke="#828282" stroke-linejoin="round"/></g><g filter="url(#filter4_d)"><path d="M49 57.982a7.96 7.96 0 002.422 5.68 8.384 8.384 0 005.827 2.362 8.384 8.384 0 005.826-2.361 7.96 7.96 0 002.424-5.678v-11.75S49 48.029 49 57.983zm8.25 2.105a2.2 2.2 0 01-1.2-.354 2.117 2.117 0 01-.796-.945 2.056 2.056 0 01-.123-1.216 2.09 2.09 0 01.59-1.078 2.179 2.179 0 011.107-.576c.419-.082.853-.04 1.248.12.395.159.732.429.97.775a2.068 2.068 0 01.201 1.977c-.108.257-.267.49-.467.686-.201.196-.44.352-.702.458a2.21 2.21 0 01-.829.161v-.008z" fill="#AFB1B8"/><path d="M57.15 60.586a2.699 2.699 0 01-1.374-.434 2.619 2.619 0 01-.983-1.169 2.556 2.556 0 01-.152-1.511 2.59 2.59 0 01.732-1.336c.373-.364.846-.61 1.36-.71a2.714 2.714 0 011.53.148c.485.195.9.527 1.195.956.294.429.451.934.451 1.452m-2.758 2.604a.5.5 0 00.098.01 2.71 2.71 0 001.016-.198c.323-.13.617-.322.864-.565a2.558 2.558 0 00.78-1.851m-2.758 2.604l.098.001v-.492l-.098.49zm2.758-2.604h-.5l.5-.002v.002zm2.817 5.322a7.884 7.884 0 01-5.477 2.22 7.884 7.884 0 01-5.478-2.22 7.46 7.46 0 01-2.271-5.322c0-4.646 3.844-7.463 7.939-9.143 2.025-.831 4.056-1.359 5.584-1.678a33.915 33.915 0 011.976-.355v11.178a7.46 7.46 0 01-2.273 5.32z" stroke="#828282" stroke-linejoin="round"/></g><g filter="url(#filter5_d)"><path d="M74.09 58.781h-1.688v1.743h-.88V56.26H74.3v.712h-1.898v1.101h1.687v.71zm4.224-.293c0 .42-.074.788-.223 1.105-.148.316-.361.56-.639.732a1.755 1.755 0 01-.949.258 1.694 1.694 0 01-1.59-.981 2.511 2.511 0 01-.232-1.09V58.3c0-.42.075-.79.225-1.108.153-.32.367-.565.642-.735.277-.172.594-.258.95-.258.355 0 .67.086.946.258.277.17.49.415.641.735.153.319.229.687.229 1.105v.19zm-.89-.193c0-.447-.081-.787-.241-1.02a.783.783 0 00-.686-.348.782.782 0 00-.682.346c-.16.228-.242.564-.243 1.007v.208c0 .436.08.774.24 1.014.16.24.39.36.691.36a.775.775 0 00.68-.345c.158-.233.238-.57.24-1.014v-.208zm3.74 1.11a.447.447 0 00-.175-.38c-.118-.09-.329-.184-.633-.282a4.56 4.56 0 01-.724-.293c-.484-.262-.727-.614-.727-1.057 0-.23.065-.436.194-.616.13-.181.317-.323.56-.425.244-.101.517-.152.82-.152.304 0 .576.056.814.167.238.11.423.265.554.466.133.201.2.43.2.686h-.88c0-.196-.061-.347-.184-.454-.123-.11-.296-.165-.519-.165-.215 0-.382.046-.5.138a.426.426 0 00-.18.358c0 .138.07.254.208.348.141.094.347.182.619.264.5.15.864.337 1.092.56.229.222.343.5.343.831 0 .37-.14.66-.419.87-.28.21-.655.314-1.128.314-.328 0-.627-.06-.896-.179a1.439 1.439 0 01-.618-.495 1.27 1.27 0 01-.211-.726h.882c0 .47.28.706.843.706.21 0 .372-.042.49-.126a.418.418 0 00.175-.358zm4.69-2.434h-1.306v3.553h-.879v-3.553H82.38v-.712h3.475v.712zm3.071 1.705h-1.688v1.142h1.981v.706h-2.86V56.26h2.854v.712h-1.975v1.016h1.688v.689zm2.388.287h-.7v1.561h-.88V56.26h1.586c.504 0 .892.112 1.166.337.273.224.41.542.41.952 0 .29-.064.534-.19.73a1.282 1.282 0 01-.572.462l.923 1.743v.041h-.944l-.8-1.561zm-.7-.712h.709c.22 0 .391-.056.512-.167a.607.607 0 00.182-.466c0-.201-.058-.36-.173-.474-.113-.116-.288-.173-.524-.173h-.707v1.28zm5.326.77v1.503h-.88V56.26h1.665c.32 0 .601.058.844.176.244.117.431.284.562.5.131.215.196.46.196.736 0 .418-.143.748-.43.99-.285.24-.68.36-1.187.36h-.77zm0-.711h.785c.232 0 .41-.055.53-.165.123-.109.185-.265.185-.468a.704.704 0 00-.185-.507c-.123-.129-.293-.195-.51-.2h-.805v1.34zm5.56.366h-1.687v1.142h1.98v.706h-2.86V56.26h2.854v.712h-1.974v1.016h1.687v.689zm4.078-1.705h-1.306v3.553h-.879v-3.553h-1.289v-.712h3.474v.712zm3.071 1.705h-1.688v1.142h1.981v.706h-2.86V56.26h2.854v.712h-1.975v1.016h1.688v.689zm2.387.287h-.7v1.561h-.879V56.26h1.585c.504 0 .893.112 1.166.337.274.224.41.542.41.952 0 .29-.063.534-.19.73a1.28 1.28 0 01-.571.462l.923 1.743v.041h-.944l-.8-1.561zm-.7-.712h.709c.221 0 .392-.056.513-.167a.607.607 0 00.182-.466c0-.201-.058-.36-.173-.474-.114-.116-.288-.173-.525-.173h-.706v1.28zm5.165 1.154a.445.445 0 00-.176-.38c-.117-.09-.328-.184-.632-.282a4.566 4.566 0 01-.724-.293c-.484-.262-.727-.614-.727-1.057 0-.23.065-.436.194-.616.131-.181.317-.323.559-.425.245-.101.518-.152.821-.152.304 0 .576.056.814.167.238.11.423.265.554.466.133.201.199.43.199.686h-.879c0-.196-.061-.347-.184-.454-.123-.11-.296-.165-.519-.165-.215 0-.382.046-.501.138a.426.426 0 00-.179.358c0 .138.07.254.208.348.141.094.347.182.619.264.5.15.864.337 1.092.56.229.222.343.5.343.831 0 .37-.14.66-.419.87-.279.21-.655.314-1.128.314a2.19 2.19 0 01-.896-.179 1.432 1.432 0 01-.618-.495 1.268 1.268 0 01-.211-.726h.881c0 .47.282.706.844.706.209 0 .372-.042.489-.126a.417.417 0 00.176-.358z" fill="#AFB1B8"/><path d="M74.09 58.781v1a1 1 0 001-1h-1zm-1.688 0v-1a1 1 0 00-1 1h1zm0 1.743v1a1 1 0 001-1h-1zm-.88 0h-1a1 1 0 001 1v-1zm0-4.265v-1a1 1 0 00-1 1h1zm2.778 0h1a1 1 0 00-1-1v1zm0 .712v1a1 1 0 001-1h-1zm-1.898 0v-1a1 1 0 00-1 1h1zm0 1.101h-1a1 1 0 001 1v-1zm1.687 0h1a1 1 0 00-1-1v1zm0-.29h-1.687v2h1.687v-2zm-2.687 1v1.742h2v-1.743h-2zm1 .742h-.88v2h.88v-2zm.12 1V56.26h-2v4.265h2zm-1-3.265H74.3v-2h-2.777v2zm1.778-1v.712h2v-.712h-2zm1-.288h-1.898v2H74.3v-2zm-2.898 1v1.101h2v-1.101h-2zm1 2.101h1.687v-2h-1.687v2zm.687-1v.71h2v-.71h-2zm4.363 2.253l-.526-.85-.003.002.53.848zm-2.54-.723l-.9.433v.003l.9-.436zm-.231-1.09h-1v.005l1-.005zm.225-1.319l-.903-.43v.003l.903.427zm.642-.735l.525.851.002-.001-.527-.85zm1.896 0l-.53.848.007.005.523-.853zm.641.735l-.905.425.003.007.902-.432zm-2.27.08l.819.573.002-.003-.821-.57zm-.243 1.007l-1-.004v.004h1zm1.61 1.237l.825.566.002-.004-.826-.562zm.241-1.014l1 .004v-.004h-1zm-.11-.015c0 .303-.053.52-.127.68l1.81.85a3.57 3.57 0 00.318-1.53h-2zm-.127.68a.676.676 0 01-.26.307l1.053 1.7a2.673 2.673 0 001.017-1.157l-1.81-.85zm-.263.309a.76.76 0 01-.42.106v2c.525 0 1.029-.129 1.479-.41l-1.06-1.696zm-.42.106a.778.778 0 01-.424-.108l-1.044 1.706c.448.274.947.402 1.468.402v-2zm-.424-.108a.698.698 0 01-.267-.31l-1.8.873c.23.473.57.866 1.022 1.143l1.045-1.706zm-.266-.307a1.518 1.518 0 01-.132-.661l-2 .01c.002.533.104 1.047.33 1.518l1.802-.867zm-.132-.656V58.3h-2v.21h2zm0-.211c0-.3.053-.519.13-.68l-1.809-.855a3.562 3.562 0 00-.321 1.535h2zm.129-.678a.696.696 0 01.263-.314l-1.05-1.702a2.69 2.69 0 00-1.02 1.157l1.807.859zm.265-.315a.768.768 0 01.422-.108v-2c-.524 0-1.026.13-1.476.408l1.054 1.7zm.422-.108c.187 0 .316.043.417.106l1.06-1.696c-.45-.28-.952-.41-1.477-.41v2zm.424.11a.67.67 0 01.259.308l1.81-.85a2.666 2.666 0 00-1.024-1.163l-1.045 1.706zm.262.315c.077.161.13.377.13.673h2c0-.54-.098-1.06-.326-1.536l-1.804.863zm.13.673v.19h2v-.19h-2zm1.11-.003c0-.54-.092-1.116-.417-1.587l-1.647 1.135c-.005-.008.013.014.03.09.019.078.034.195.034.362h2zm-.417-1.587a1.781 1.781 0 00-1.509-.781v2c.016 0-.012.002-.059-.022a.264.264 0 01-.079-.062l1.647-1.135zm-1.509-.781a1.78 1.78 0 00-1.504.775l1.643 1.141a.264.264 0 01-.079.062c-.046.024-.075.022-.06.022v-2zm-1.501.772c-.328.467-.422 1.04-.424 1.577l2 .009c0-.165.016-.28.034-.355.018-.074.034-.093.028-.084L74.996 56.7zm-.424 1.581v.208h2v-.208h-2zm0 .208c0 .54.096 1.1.408 1.569l1.664-1.11c-.008-.012-.073-.127-.073-.459h-2zm.408 1.569a1.78 1.78 0 001.523.805v-2c-.015 0 .016-.002.064.023a.261.261 0 01.077.062l-1.664 1.11zm1.523.805c.603 0 1.148-.26 1.504-.78l-1.649-1.131a.271.271 0 01.082-.066c.049-.025.078-.023.063-.023v2zm1.507-.783c.317-.467.41-1.035.413-1.572l-2-.008c0 .165-.016.282-.035.36-.018.076-.035.1-.032.095l1.654 1.125zm.413-1.576v-.208h-2v.208h2zm2.566.521l-.609.794.008.006.6-.8zm-.633-.28l-.311.95.005.001.306-.952zm-.724-.294l-.475.88h.001l.474-.88zm-.533-1.673l-.812-.584v.001l.812.583zm.56-.425l-.385-.923-.002.001.386.922zm1.634.015l-.423.906.006.003.417-.909zm.554.466l-.838.545.003.006.835-.551zm.2.686v1a1 1 0 001-1h-1zm-.88 0h-1a1 1 0 001 1v-1zm-.184-.454l-.665.747.007.006.658-.753zm-1.02-.027l.602.799.008-.007-.61-.792zm.03.706l-.56.829.005.003.554-.832zm.618.264l-.29.957h.002l.288-.957zm1.016 2.261l.6.801.003-.002-.603-.798zm-2.024.135l-.41.912.005.003.405-.915zm-.618-.495l-.83.559.004.005.826-.564zm-.211-.726v-1a1 1 0 00-1 1h1zm.882 0h1a1 1 0 00-1-1v1zm1.332.58l.583.813.009-.007-.591-.806zm1.176-.358c0-.433-.17-.877-.576-1.18l-1.2 1.6a.581.581 0 01-.176-.22.488.488 0 01-.048-.2h2zm-.567-1.174c-.264-.203-.62-.339-.936-.44l-.61 1.904c.13.042.223.078.285.105.07.031.073.04.044.018l1.217-1.587zm-.93-.438a3.63 3.63 0 01-.56-.223l-.949 1.76c.251.136.555.255.887.364l.621-1.901zm-.56-.223a.567.567 0 01-.196-.147l-.003-.006-.001-.005a.134.134 0 01-.001-.02h-2c0 .906.535 1.551 1.25 1.938l.951-1.76zm-.201-.177a.16.16 0 01.002-.027l.003-.006-1.625-1.166a2.03 2.03 0 00-.38 1.199h2zm.004-.031c.006-.008.033-.044.135-.087l-.773-1.845c-.383.16-.729.407-.985.763l1.623 1.169zm.133-.086c.106-.044.246-.076.436-.076v-2c-.416 0-.822.07-1.205.23l.769 1.846zm.436-.076a.91.91 0 01.39.073l.847-1.812a2.9 2.9 0 00-1.237-.26v2zm.397.076a.284.284 0 01.133.102l1.676-1.09a2.276 2.276 0 00-.975-.83l-.834 1.818zm.136.108a.22.22 0 01.034.135h2c0-.44-.117-.862-.365-1.237l-1.669 1.102zm1.034-.865h-.879v2h.88v-2zm.121 1c0-.423-.143-.873-.527-1.208l-1.315 1.507a.493.493 0 01-.13-.183.33.33 0 01-.028-.116h2zm-.52-1.202c-.362-.322-.803-.417-1.183-.417v2c.032 0 .026.005-.005-.005a.4.4 0 01-.14-.083l1.328-1.495zm-1.183-.417c-.344 0-.756.072-1.111.346l1.22 1.584a.395.395 0 01-.13.07c-.02.005-.017 0 .021 0v-2zm-1.103.34a1.425 1.425 0 00-.577 1.155h2a.559.559 0 01-.06.247.554.554 0 01-.159.194l-1.204-1.596zm-.577 1.155c0 .543.3.942.648 1.178l1.12-1.657a.503.503 0 01.143.158c.06.101.09.215.09.322h-2zm.654 1.181c.259.173.572.295.883.39l.579-1.915a1.565 1.565 0 01-.353-.139l-1.11 1.664zm.885.39c.432.13.62.257.683.318L82.4 57.85c-.394-.384-.935-.63-1.502-.8l-.576 1.914zm.683.318a.117.117 0 01.03.04.2.2 0 01.01.075h2c0-.589-.214-1.129-.645-1.548l-1.395 1.433zm.04.115c0 .03-.003.047-.004.055l-.002.006.003-.005s-.005.006-.019.017l1.206 1.596c.545-.412.816-1.006.816-1.669h-2zm-.018.07c-.054.04-.196.114-.529.114v2c.613 0 1.223-.135 1.727-.513l-1.198-1.601zm-.529.114c-.204 0-.364-.037-.492-.093l-.809 1.829c.411.181.85.264 1.301.264v-2zm-.486-.09a.452.452 0 01-.202-.147l-1.652 1.127c.262.385.625.66 1.034.843l.82-1.824zm-.199-.142c-.019-.029-.04-.072-.04-.168h-2c0 .455.119.895.381 1.285l1.66-1.117zm-1.04.832h.882v-2h-.882v2zm-.118-1c0 .44.14.937.569 1.296.395.33.878.41 1.274.41v-2c-.074 0-.103-.008-.1-.008a.325.325 0 01.11.064.455.455 0 01.128.176c.022.054.019.082.019.062h-2zm1.843 1.706c.328 0 .724-.064 1.072-.314l-1.165-1.625a.383.383 0 01.123-.061c.017-.005.01 0-.03 0v2zm1.08-.32c.39-.285.585-.71.585-1.164h-2a.581.581 0 01.233-.449l1.183 1.613zm4.276-3.598v1a1 1 0 001-1h-1zm-1.307 0v-1a1 1 0 00-1 1h1zm0 3.553v1a1 1 0 001-1h-1zm-.879 0h-1a1 1 0 001 1v-1zm0-3.553h1a1 1 0 00-1-1v1zm-1.289 0h-1a1 1 0 001 1v-1zm0-.712v-1a1 1 0 00-1 1h1zm3.475 0h1a1 1 0 00-1-1v1zm0-.288h-1.307v2h1.307v-2zm-2.307 1v3.553h2v-3.553h-2zm1 2.553h-.879v2h.88v-2zm.121 1v-3.553h-2v3.553h2zm-1-4.553H82.38v2h1.29v-2zm-.289 1v-.712h-2v.712h2zm-1 .288h3.475v-2H82.38v2zm2.475-1v.712h2v-.712h-2zm4.07 2.417v1a1 1 0 001-1h-1zm-1.688 0v-1a1 1 0 00-1 1h1zm0 1.142h-1a1 1 0 001 1v-1zm1.981 0h1a1 1 0 00-1-1v1zm0 .706v1a1 1 0 001-1h-1zm-2.86 0h-1a1 1 0 001 1v-1zm0-4.265v-1a1 1 0 00-1 1h1zm2.854 0h1a1 1 0 00-1-1v1zm0 .712v1a1 1 0 001-1h-1zm-1.975 0v-1a1 1 0 00-1 1h1zm0 1.016h-1a1 1 0 001 1v-1zm1.688 0h1a1 1 0 00-1-1v1zm0-.311h-1.688v2h1.688v-2zm-2.688 1v1.142h2v-1.142h-2zm1 2.142h1.981v-2h-1.98v2zm.981-1v.706h2v-.706h-2zm1-.294h-2.86v2h2.86v-2zm-1.86 1V56.26h-2v4.265h2zm-1-3.265h2.854v-2H86.36v2zm1.854-1v.712h2v-.712h-2zm1-.288h-1.975v2h1.975v-2zm-2.975 1v1.016h2v-1.016h-2zm1 2.016h1.688v-2h-1.688v2zm.688-1v.689h2v-.689h-2zm3.388.976l.89-.456a1 1 0 00-.89-.544v1zm-.7 0v-1a1 1 0 00-1 1h1zm0 1.561v1a1 1 0 001-1h-1zm-.88 0h-1a1 1 0 001 1v-1zm0-4.265v-1a1 1 0 00-1 1h1zm2.971 2.018l-.838-.545-.001.002.84.543zm-.57.463l-.412-.912a1 1 0 00-.473 1.38l.884-.468zm.922 1.743h1a1 1 0 00-.116-.467l-.884.467zm0 .041v1a1 1 0 001-1h-1zm-.944 0l-.89.456a1 1 0 00.89.544v-1zm-1.5-2.273h-1a1 1 0 001 1v-1zm1.222-.167l.677.736.006-.006-.683-.73zm.009-.94l-.713.7.006.007.707-.707zm-1.23-.173v-1a1 1 0 00-1 1h1zm.7.992h-.7v2h.7v-2zm-1.7 1v1.561h2v-1.561h-2zm1 .561h-.88v2h.88v-2zm.12 1V56.26h-2v4.265h2zm-1-3.265h1.586v-2h-1.585v2zm1.586 0c.368 0 .499.083.53.11l1.27-1.546c-.514-.423-1.161-.564-1.8-.564v2zm.53.11c.017.013.021.02.025.029a.39.39 0 01.02.15h2c0-.656-.232-1.28-.775-1.725l-1.27 1.545zm.046.179c0 .073-.008.12-.015.148-.007.026-.013.035-.014.036l1.677 1.09c.256-.393.352-.838.352-1.274h-2zm-.03.186a.117.117 0 01-.027.027.527.527 0 01-.116.067l.822 1.824c.392-.177.75-.444 1-.832l-1.68-1.086zm-.616 1.474l.923 1.743 1.768-.935-.923-1.744-1.768.936zm.807 1.275v.041h2v-.04h-2zm1-.959h-.944v2h.944v-2zm-.053.544l-.8-1.561-1.78.912.8 1.561 1.78-.911zm-2.39-.817h.709v-2h-.71v2zm.709 0c.384 0 .828-.099 1.189-.43l-1.354-1.473a.415.415 0 01.148-.09c.035-.01.045-.007.016-.007v2zm1.195-.437c.362-.338.499-.779.499-1.196h-2c0-.003 0-.041.023-.099a.458.458 0 01.112-.165l1.366 1.46zm.499-1.196c0-.4-.121-.837-.466-1.182l-1.414 1.415a.448.448 0 01-.103-.16c-.018-.05-.017-.079-.017-.073h2zm-.46-1.175c-.373-.38-.857-.472-1.237-.472v2c.04 0 .032.005-.005-.007a.475.475 0 01-.184-.12l1.426-1.401zm-1.237-.472h-.707v2h.707v-2zm-1.707 1v1.28h2v-1.28h-2zm6.327 2.05v-1a1 1 0 00-1 1h1zm0 1.503v1a1 1 0 001-1h-1zm-.88 0h-1a1 1 0 001 1v-1zm0-4.265v-1a1 1 0 00-1 1h1zm2.509.176l-.436.9.003.001.433-.901zm.562.5l-.856.517.002.004.854-.52zm-.234 1.726l.644.765-.644-.765zm-1.957-.351h-1a1 1 0 001 1v-1zm1.315-.165l-.664-.747-.006.005.67.742zm-.51-1.174l.018-1h-.018v1zm-.805 0v-1a1 1 0 00-1 1h1zm-1 2.05v1.503h2v-1.502h-2zm1 .503h-.88v2h.88v-2zm.12 1V56.26h-2v4.265h2zm-1-3.265h1.665v-2H95.06v2zm1.665 0c.198 0 .325.036.408.076l.871-1.8a2.913 2.913 0 00-1.28-.276v2zm.41.077a.295.295 0 01.14.116l1.712-1.033a2.29 2.29 0 00-.986-.886l-.865 1.803zm.142.12c.026.043.05.105.05.215h2c0-.441-.107-.87-.342-1.256l-1.708 1.04zm.05.215c0 .16-.04.197-.075.226l1.29 1.529c.539-.456.785-1.08.785-1.755h-2zm-.075.225c-.049.042-.188.126-.542.126v2c.658 0 1.31-.157 1.831-.596l-1.289-1.53zm-.542.126h-.77v2h.77v-2zm-.77 1.288h.785v-2h-.785v2zm.785 0c.376 0 .83-.088 1.2-.422l-1.34-1.485c.06-.055.12-.08.151-.09.028-.009.03-.003-.011-.003v2zm1.194-.417c.386-.342.52-.8.52-1.216h-2c0 .002 0-.037.024-.097a.485.485 0 01.128-.182l1.328 1.495zm.52-1.216c0-.419-.13-.85-.46-1.198L96.53 57.86a.367.367 0 01-.078-.124c-.015-.042-.014-.066-.014-.06h2zm-.46-1.198c-.347-.362-.794-.5-1.216-.508l-.036 2c.012 0-.011.001-.056-.016a.397.397 0 01-.14-.095l1.448-1.38zm-1.234-.508h-.805v2h.805v-2zm-1.805 1v1.339h2v-1.34h-2zm6.56 1.705v1a1 1 0 001-1h-1zm-1.687 0v-1a1 1 0 00-1 1h1zm0 1.142h-1a1 1 0 001 1v-1zm1.98 0h1a1 1 0 00-1-1v1zm0 .706v1a1 1 0 001-1h-1zm-2.86 0h-1a1 1 0 001 1v-1zm0-4.265v-1a1 1 0 00-1 1h1zm2.854 0h1a1 1 0 00-1-1v1zm0 .712v1a1 1 0 001-1h-1zm-1.974 0v-1a1 1 0 00-1 1h1zm0 1.016h-1a1 1 0 001 1v-1zm1.687 0h1a1 1 0 00-1-1v1zm0-.311h-1.687v2h1.687v-2zm-2.687 1v1.142h2v-1.142h-2zm1 2.142h1.98v-2h-1.98v2zm.98-1v.706h2v-.706h-2zm1-.294h-2.86v2h2.86v-2zm-1.86 1V56.26h-2v4.265h2zm-1-3.265h2.854v-2h-2.853v2zm1.854-1v.712h2v-.712h-2zm1-.288h-1.974v2h1.974v-2zm-2.974 1v1.016h2v-1.016h-2zm1 2.016h1.687v-2h-1.687v2zm.687-1v.689h2v-.689h-2zm5.078-1.016v1a1 1 0 001-1h-1zm-1.306 0v-1a1 1 0 00-1 1h1zm0 3.553v1a1 1 0 001-1h-1zm-.879 0h-1a1 1 0 001 1v-1zm0-3.553h1a1 1 0 00-1-1v1zm-1.289 0h-1a1 1 0 001 1v-1zm0-.712v-1a1 1 0 00-1 1h1zm3.474 0h1a1 1 0 00-1-1v1zm0-.288h-1.306v2h1.306v-2zm-2.306 1v3.553h2v-3.553h-2zm1 2.553h-.879v2h.879v-2zm.121 1v-3.553h-2v3.553h2zm-1-4.553h-1.289v2h1.289v-2zm-.289 1v-.712h-2v.712h2zm-1 .288h3.474v-2h-3.474v2zm2.474-1v.712h2v-.712h-2zm4.071 2.417v1a1 1 0 001-1h-1zm-1.688 0v-1a1 1 0 00-1 1h1zm0 1.142h-1a1 1 0 001 1v-1zm1.981 0h1a1 1 0 00-1-1v1zm0 .706v1a1 1 0 001-1h-1zm-2.86 0h-1a1 1 0 001 1v-1zm0-4.265v-1a1 1 0 00-1 1h1zm2.854 0h1a1 1 0 00-1-1v1zm0 .712v1a1 1 0 001-1h-1zm-1.975 0v-1a1 1 0 00-1 1h1zm0 1.016h-1a1 1 0 001 1v-1zm1.688 0h1a1 1 0 00-1-1v1zm0-.311h-1.688v2h1.688v-2zm-2.688 1v1.142h2v-1.142h-2zm1 2.142h1.981v-2h-1.981v2zm.981-1v.706h2v-.706h-2zm1-.294h-2.86v2h2.86v-2zm-1.86 1V56.26h-2v4.265h2zm-1-3.265h2.854v-2h-2.854v2zm1.854-1v.712h2v-.712h-2zm1-.288h-1.975v2h1.975v-2zm-2.975 1v1.016h2v-1.016h-2zm1 2.016h1.688v-2h-1.688v2zm.688-1v.689h2v-.689h-2zm3.387.976l.89-.456a.999.999 0 00-.89-.544v1zm-.7 0v-1a1 1 0 00-1 1h1zm0 1.561v1a1 1 0 001-1h-1zm-.879 0h-1a1 1 0 001 1v-1zm0-4.265v-1a1 1 0 00-1 1h1zm2.971 2.018l-.838-.545-.002.002.84.543zm-.571.463l-.411-.912a.998.998 0 00-.473 1.38l.884-.468zm.923 1.743h1a.993.993 0 00-.117-.467l-.883.467zm0 .041v1a1 1 0 001-1h-1zm-.944 0l-.89.456a1 1 0 00.89.544v-1zm-1.5-2.273h-1a1 1 0 001 1v-1zm1.222-.167l.677.736.006-.006-.683-.73zm.009-.94l-.713.7.006.007.707-.707zm-1.231-.173v-1a1 1 0 00-1 1h1zm.7.992h-.7v2h.7v-2zm-1.7 1v1.561h2v-1.561h-2zm1 .561h-.879v2h.879v-2zm.121 1V56.26h-2v4.265h2zm-1-3.265h1.585v-2h-1.585v2zm1.585 0c.369 0 .499.083.532.11l1.269-1.546c-.515-.423-1.162-.564-1.801-.564v2zm.532.11c.016.013.02.02.023.029a.38.38 0 01.021.15h2c0-.656-.232-1.28-.775-1.725l-1.269 1.545zm.044.179c0 .073-.008.12-.015.148-.007.026-.013.035-.013.036l1.676 1.09c.256-.393.352-.838.352-1.274h-2zm-.03.186a.111.111 0 01-.026.027.532.532 0 01-.116.067l.821 1.824c.393-.177.75-.444 1.001-.832l-1.68-1.086zm-.615 1.474l.923 1.743 1.767-.935-.922-1.744-1.768.936zm.807 1.275v.041h2v-.04h-2zm1-.959h-.944v2h.944v-2zm-.054.544l-.8-1.561-1.78.912.8 1.561 1.78-.911zm-2.39-.817h.709v-2h-.709v2zm.709 0c.384 0 .829-.099 1.19-.43l-1.354-1.473a.42.42 0 01.148-.09c.035-.01.044-.007.016-.007v2zm1.196-.437c.361-.338.499-.779.499-1.196h-2c0-.003 0-.041.022-.099a.454.454 0 01.113-.165l1.366 1.46zm.499-1.196c0-.4-.121-.837-.466-1.182l-1.414 1.415a.442.442 0 01-.103-.16c-.018-.05-.017-.079-.017-.073h2zm-.46-1.175c-.374-.38-.857-.472-1.238-.472v2c.041 0 .033.005-.004-.007a.468.468 0 01-.184-.12l1.426-1.401zm-1.238-.472h-.706v2h.706v-2zm-1.706 1v1.28h2v-1.28h-2zm5.989 2.053l-.608.794.008.006.6-.8zm-.632-.28l-.311.95.005.001.306-.952zm-.724-.294l-.475.88h.001l.474-.88zm-.533-1.673l-.812-.584-.001.001.813.583zm.559-.425l-.384-.923-.002.001.386.922zm1.635.015l-.423.906.006.003.417-.909zm.554.466l-.838.545.003.006.835-.551zm.199.686v1a1 1 0 001-1h-1zm-.879 0h-1a1 1 0 001 1v-1zm-.184-.454l-.665.747.007.006.658-.753zm-1.02-.027l.602.799.008-.007-.61-.792zm.029.706l-.56.829.006.003.554-.832zm.619.264l-.29.957h.001l.289-.957zm1.016 2.261l.599.801.004-.002-.603-.798zm-2.024.135l-.41.912.005.003.405-.915zm-.618-.495l-.83.559.003.005.827-.564zm-.211-.726v-1a1 1 0 00-1 1h1zm.881 0h1a1 1 0 00-1-1v1zm1.333.58l.583.813.009-.007-.592-.806zm1.176-.358c0-.433-.17-.877-.576-1.18l-1.2 1.6a.59.59 0 01-.176-.22.498.498 0 01-.048-.2h2zm-.567-1.174c-.264-.203-.619-.339-.936-.44l-.611 1.904c.13.042.223.078.286.105.069.031.073.04.044.018l1.217-1.587zm-.931-.438a3.61 3.61 0 01-.56-.223l-.948 1.76c.251.136.555.255.887.364l.621-1.901zm-.559-.223a.583.583 0 01-.199-.153l-.001-.005a.074.074 0 01-.002-.02h-2c0 .906.536 1.551 1.252 1.938l.95-1.76zm-.202-.177a.09.09 0 01.002-.022v-.004l.001-.001.003-.006-1.625-1.166a2.03 2.03 0 00-.381 1.199h2zm.005-.031c.006-.008.033-.044.135-.087l-.773-1.845c-.383.16-.729.407-.985.763l1.623 1.169zm.132-.086c.107-.044.247-.076.437-.076v-2c-.416 0-.822.07-1.205.23l.768 1.846zm.437-.076a.91.91 0 01.391.073l.846-1.812a2.896 2.896 0 00-1.237-.26v2zm.397.076a.289.289 0 01.133.102l1.676-1.09a2.272 2.272 0 00-.975-.83l-.834 1.818zm.136.108a.22.22 0 01.034.135h2c0-.44-.117-.862-.365-1.237l-1.669 1.102zm1.034-.865h-.879v2h.879v-2zm.121 1c0-.423-.143-.873-.527-1.208l-1.315 1.507a.494.494 0 01-.13-.183.322.322 0 01-.028-.116h2zm-.52-1.202c-.362-.322-.803-.417-1.183-.417v2c.031 0 .025.005-.005-.005a.401.401 0 01-.141-.083l1.329-1.495zM114.8 55.9c-.344 0-.756.072-1.111.346l1.22 1.584a.386.386 0 01-.13.07c-.021.005-.017 0 .021 0v-2zm-1.103.34a1.426 1.426 0 00-.577 1.155h2a.55.55 0 01-.061.247.55.55 0 01-.158.194l-1.204-1.596zm-.577 1.155c0 .543.3.942.648 1.178l1.12-1.657a.49.49 0 01.143.158c.06.101.089.215.089.322h-2zm.654 1.181c.259.173.572.295.883.39l.579-1.915a1.567 1.567 0 01-.353-.139l-1.109 1.664zm.884.39c.433.13.621.257.683.318l1.396-1.433c-.395-.384-.935-.63-1.502-.8l-.577 1.914zm.683.318a.126.126 0 01.031.04c.002.005.01.026.01.075h2c0-.589-.215-1.129-.645-1.548l-1.396 1.433zm.041.115c0 .03-.003.047-.004.055l-.002.006.003-.005s-.005.006-.019.017l1.206 1.596c.545-.412.816-1.006.816-1.669h-2zm-.018.07c-.054.04-.196.114-.529.114v2c.613 0 1.223-.135 1.727-.513l-1.198-1.601zm-.529.114c-.205 0-.364-.037-.492-.093l-.809 1.829c.411.181.85.264 1.301.264v-2zm-.486-.09c-.13-.06-.18-.115-.202-.147l-1.653 1.127c.263.385.626.66 1.035.843l.82-1.824zm-.199-.142c-.019-.029-.04-.072-.04-.168h-2c0 .455.119.895.381 1.285l1.659-1.117zm-1.04.832h.881v-2h-.881v2zm-.119-1c0 .44.141.937.57 1.296.394.33.878.41 1.274.41v-2c-.074 0-.103-.008-.1-.008a.33.33 0 01.109.064.451.451 0 01.129.176c.022.054.018.082.018.062h-2zm1.844 1.706c.328 0 .724-.064 1.072-.314l-1.165-1.625a.384.384 0 01.123-.061c.017-.005.01 0-.03 0v2zm1.081-.32c.388-.285.584-.71.584-1.164h-2c0-.054.011-.14.059-.237a.575.575 0 01.174-.212l1.183 1.613z" fill="#828282"/></g></g><defs><filter id="filter0_d" x="0" y="0" width="178" height="98" filterUnits="userSpaceOnUse" color-interpolation-filters="sRGB"><feFlood flood-opacity="0" result="BackgroundImageFix"/><feColorMatrix in="SourceAlpha" values="0 0 0 0 0 0 0 0 0 0 0 0 0 0 0 0 0 0 127 0"/><feOffset dy="4"/><feGaussianBlur stdDeviation="2"/><feColorMatrix values="0 0 0 0 0 0 0 0 0 0 0 0 0 0 0 0 0 0 0.25 0"/><feBlend in2="BackgroundImageFix" result="effect1_dropShadow"/><feBlend in="SourceGraphic" in2="effect1_dropShadow" result="shape"/></filter><filter id="filter1_d" x="0" y="0" width="178" height="98" filterUnits="userSpaceOnUse" color-interpolation-filters="sRGB"><feFlood flood-opacity="0" result="BackgroundImageFix"/><feColorMatrix in="SourceAlpha" values="0 0 0 0 0 0 0 0 0 0 0 0 0 0 0 0 0 0 127 0"/><feOffset dy="4"/><feGaussianBlur stdDeviation="2"/><feColorMatrix values="0 0 0 0 0 0 0 0 0 0 0 0 0 0 0 0 0 0 0.25 0"/><feBlend in2="BackgroundImageFix" result="effect1_dropShadow"/><feBlend in="SourceGraphic" in2="effect1_dropShadow" result="shape"/></filter><filter id="filter2_d" x="53.303" y="36.831" width="16.195" height="15.986" filterUnits="userSpaceOnUse" color-interpolation-filters="sRGB"><feFlood flood-opacity="0" result="BackgroundImageFix"/><feColorMatrix in="SourceAlpha" values="0 0 0 0 0 0 0 0 0 0 0 0 0 0 0 0 0 0 127 0"/><feOffset dy="4"/><feGaussianBlur stdDeviation="2"/><feColorMatrix values="0 0 0 0 0 0 0 0 0 0 0 0 0 0 0 0 0 0 0.25 0"/><feBlend in2="BackgroundImageFix" result="effect1_dropShadow"/><feBlend in="SourceGraphic" in2="effect1_dropShadow" result="shape"/></filter><filter id="filter3_d" x="63.923" y="24" width="31.713" height="36.44" filterUnits="userSpaceOnUse" color-interpolation-filters="sRGB"><feFlood flood-opacity="0" result="BackgroundImageFix"/><feColorMatrix in="SourceAlpha" values="0 0 0 0 0 0 0 0 0 0 0 0 0 0 0 0 0 0 127 0"/><feOffset dy="4"/><feGaussianBlur stdDeviation="2"/><feColorMatrix values="0 0 0 0 0 0 0 0 0 0 0 0 0 0 0 0 0 0 0.25 0"/><feBlend in2="BackgroundImageFix" result="effect1_dropShadow"/><feBlend in="SourceGraphic" in2="effect1_dropShadow" result="shape"/></filter><filter id="filter4_d" x="45" y="46.236" width="24.498" height="27.788" filterUnits="userSpaceOnUse" color-interpolation-filters="sRGB"><feFlood flood-opacity="0" result="BackgroundImageFix"/><feColorMatrix in="SourceAlpha" values="0 0 0 0 0 0 0 0 0 0 0 0 0 0 0 0 0 0 127 0"/><feOffset dy="4"/><feGaussianBlur stdDeviation="2"/><feColorMatrix values="0 0 0 0 0 0 0 0 0 0 0 0 0 0 0 0 0 0 0.25 0"/><feBlend in2="BackgroundImageFix" result="effect1_dropShadow"/><feBlend in="SourceGraphic" in2="effect1_dropShadow" result="shape"/></filter><filter id="filter5_d" x="67.523" y="56.2" width="52.859" height="12.383" filterUnits="userSpaceOnUse" color-interpolation-filters="sRGB"><feFlood flood-opacity="0" result="BackgroundImageFix"/><feColorMatrix in="SourceAlpha" values="0 0 0 0 0 0 0 0 0 0 0 0 0 0 0 0 0 0 127 0"/><feOffset dy="4"/><feGaussianBlur stdDeviation="2"/><feColorMatrix values="0 0 0 0 0 0 0 0 0 0 0 0 0 0 0 0 0 0 0.25 0"/><feBlend in2="BackgroundImageFix" result="effect1_dropShadow"/><feBlend in="SourceGraphic" in2="effect1_dropShadow" result="shape"/></filter></defs></svg>