<svg width="178" height="98" viewBox="0 0 178 98" fill="none" xmlns="http://www.w3.org/2000/svg">
<g filter="url(#filter0_d)">
<g filter="url(#filter1_d)">
<rect x="4.5" y="0.5" width="169" height="89" rx="3.5" stroke="#828282" stroke-linejoin="round"/>
</g>
<g filter="url(#filter2_d)">
<path d="M61.402 36.8306H61.3992C59.1369 36.8306 57.303 38.6177 57.303 40.8223V40.8249C57.303 43.0295 59.1369 44.8167 61.3992 44.8167H61.402C63.6643 44.8167 65.4982 43.0295 65.4982 40.8249V40.8223C65.4982 38.6177 63.6643 36.8306 61.402 36.8306Z" fill="#AFB1B8"/>
<path d="M61.3992 37.3306H61.402C63.4004 37.3306 64.9982 38.906 64.9982 40.8223V40.8249C64.9982 42.7412 63.4004 44.3167 61.402 44.3167H61.3992C59.4008 44.3167 57.803 42.7412 57.803 40.8249V40.8223C57.803 38.906 59.4008 37.3306 61.3992 37.3306Z" stroke="#828282" stroke-linejoin="round"/>
</g>
<g filter="url(#filter3_d)">
<path d="M91.6368 35.5545C91.6304 32.4924 90.3795 29.5575 88.1579 27.3921C85.9363 25.2266 82.925 24.007 79.7828 24V24C76.6397 24.0056 73.6269 25.2246 71.4041 27.3902C69.1814 29.5558 67.9298 32.4915 67.9233 35.5545V35.5545V52.4402C67.9233 52.4402 91.6341 49.8667 91.6368 35.5571V35.5545Z" fill="#AFB1B8"/>
<path d="M68.8672 51.8073C68.6998 51.8327 68.5513 51.8541 68.4233 51.872V35.555C68.4296 32.6287 69.6253 29.8214 71.7531 27.7483C73.8811 25.675 76.7681 24.5056 79.7827 24.5C82.7963 24.5069 85.682 25.6769 87.8089 27.7501C89.9357 29.8231 91.1307 32.6299 91.1368 35.5555V35.557C91.1368 35.5571 91.1368 35.5571 91.1368 35.5571C91.1355 42.3802 85.4878 46.4822 79.5893 48.9022C76.6625 50.1029 73.7302 50.8641 71.5258 51.3251C70.4247 51.5553 69.5077 51.7102 68.8672 51.8073Z" stroke="#828282" stroke-linejoin="round"/>
</g>
<g filter="url(#filter4_d)">
<path d="M49 57.9823C49.0057 60.1129 49.8766 62.1547 51.4223 63.6615C52.968 65.1683 55.0629 66.0177 57.2492 66.0239V66.0239C59.4351 66.0177 61.5296 65.1687 63.0752 63.6625C64.6209 62.1562 65.492 60.1151 65.4985 57.9849V57.9849V46.2356C65.4985 46.2356 49 48.0276 49 57.9823ZM57.2492 60.0874C56.822 60.0874 56.4043 59.964 56.0491 59.7326C55.6938 59.5013 55.417 59.1726 55.2535 58.7879C55.09 58.4032 55.0472 57.98 55.1305 57.5716C55.2139 57.1632 55.4196 56.7881 55.7217 56.4937C56.0239 56.1993 56.4088 55.9988 56.8278 55.9176C57.2468 55.8364 57.6812 55.8781 58.0759 56.0374C58.4706 56.1967 58.808 56.4665 59.0454 56.8127C59.2827 57.1589 59.4094 57.5659 59.4094 57.9823C59.4105 58.2594 59.3554 58.534 59.2473 58.7903C59.1392 59.0466 58.9803 59.2796 58.7796 59.476C58.5789 59.6723 58.3404 59.828 58.0778 59.9343C57.8152 60.0406 57.5336 60.0953 57.2492 60.0953V60.0874Z" fill="#AFB1B8"/>
<path d="M57.1508 60.5856C56.6619 60.5679 56.1859 60.4184 55.7763 60.1517C55.339 59.8669 54.9963 59.4609 54.7933 58.9835C54.5903 58.5059 54.537 57.9795 54.6406 57.4716C54.7443 56.9638 54.9998 56.4991 55.3728 56.1356C55.7456 55.7723 56.2191 55.5263 56.7326 55.4267C57.2462 55.3272 57.7786 55.3782 58.2631 55.5737C58.7476 55.7693 59.1639 56.1014 59.4577 56.53C59.7517 56.9587 59.9094 57.4641 59.9094 57.9823M57.1508 60.5856C57.1827 60.592 57.2155 60.5953 57.2492 60.5953C57.5976 60.5953 57.9429 60.5283 58.2654 60.3978C58.5878 60.2673 58.8815 60.0757 59.1292 59.8334C59.377 59.591 59.5739 59.3027 59.708 58.9846C59.8419 58.667 59.9105 58.3264 59.9094 57.9823M57.1508 60.5856C57.1836 60.5868 57.2164 60.5874 57.2492 60.5874V60.0953L57.1508 60.5856ZM59.9094 57.9823H59.4095L59.9094 57.9804C59.9094 57.981 59.9094 57.9816 59.9094 57.9823ZM62.7263 63.3044C61.2753 64.7184 59.3066 65.5177 57.2492 65.5239C55.1915 65.5177 53.2223 64.718 51.7713 63.3035C50.3205 61.8892 49.5055 59.9757 49.5 57.9816C49.5004 53.3364 53.3441 50.5187 57.439 48.8385C59.4641 48.0076 61.4948 47.4802 63.0229 47.1605C63.786 47.0009 64.4212 46.8936 64.8645 46.8264C64.9113 46.8193 64.956 46.8126 64.9985 46.8064V57.984C64.9923 59.9777 64.177 61.8906 62.7263 63.3044Z" stroke="#828282" stroke-linejoin="round"/>
</g>
<g filter="url(#filter5_d)">
<path d="M74.0891 58.7812H72.4016V60.5244H71.5227V56.2588H74.3V56.9707H72.4016V58.0723H74.0891V58.7812ZM78.3137 58.4883C78.3137 58.9082 78.2395 59.2764 78.0911 59.5928C77.9426 59.9092 77.7297 60.1533 77.4524 60.3252C77.177 60.4971 76.8606 60.583 76.5032 60.583C76.1497 60.583 75.8342 60.498 75.5569 60.3281C75.2795 60.1582 75.0647 59.916 74.9124 59.6016C74.76 59.2852 74.6829 58.9219 74.6809 58.5117V58.3008C74.6809 57.8809 74.7561 57.5117 74.9065 57.1934C75.0588 56.873 75.2727 56.6279 75.5481 56.458C75.8254 56.2861 76.1418 56.2002 76.4973 56.2002C76.8528 56.2002 77.1682 56.2861 77.4436 56.458C77.7209 56.6279 77.9348 56.873 78.0852 57.1934C78.2375 57.5117 78.3137 57.8799 78.3137 58.2979V58.4883ZM77.4231 58.2949C77.4231 57.8477 77.343 57.5078 77.1829 57.2754C77.0227 57.043 76.7942 56.9268 76.4973 56.9268C76.2024 56.9268 75.9749 57.042 75.8147 57.2725C75.6545 57.501 75.5735 57.8369 75.5715 58.2803V58.4883C75.5715 58.9238 75.6516 59.2617 75.8118 59.502C75.9719 59.7422 76.2024 59.8623 76.5032 59.8623C76.7981 59.8623 77.0247 59.7471 77.1829 59.5166C77.3411 59.2842 77.4211 58.9463 77.4231 58.5029V58.2949ZM81.1643 59.4053C81.1643 59.2393 81.1057 59.1123 80.9885 59.0244C80.8713 58.9346 80.6604 58.8408 80.3557 58.7432C80.051 58.6436 79.8098 58.5459 79.6321 58.4502C79.1477 58.1885 78.9055 57.8359 78.9055 57.3926C78.9055 57.1621 78.97 56.957 79.0989 56.7773C79.2297 56.5957 79.4163 56.4541 79.6584 56.3525C79.9026 56.251 80.176 56.2002 80.4788 56.2002C80.7834 56.2002 81.0549 56.2559 81.2932 56.3672C81.5315 56.4766 81.7161 56.6318 81.8469 56.833C81.9797 57.0342 82.0461 57.2627 82.0461 57.5186H81.1672C81.1672 57.3232 81.1057 57.1719 80.9827 57.0645C80.8596 56.9551 80.6868 56.9004 80.4641 56.9004C80.2493 56.9004 80.0823 56.9463 79.9631 57.0381C79.844 57.1279 79.7844 57.2471 79.7844 57.3955C79.7844 57.5342 79.8538 57.6504 79.9924 57.7441C80.1331 57.8379 80.3391 57.9258 80.6106 58.0078C81.1106 58.1582 81.4749 58.3447 81.7034 58.5674C81.9319 58.79 82.0461 59.0674 82.0461 59.3994C82.0461 59.7686 81.9065 60.0586 81.6272 60.2695C81.3479 60.4785 80.9719 60.583 80.4993 60.583C80.1711 60.583 79.8723 60.5234 79.6028 60.4043C79.3333 60.2832 79.1272 60.1182 78.9846 59.9092C78.844 59.7002 78.7737 59.458 78.7737 59.1826H79.6555C79.6555 59.6533 79.9368 59.8887 80.4993 59.8887C80.7083 59.8887 80.8713 59.8467 80.9885 59.7627C81.1057 59.6768 81.1643 59.5576 81.1643 59.4053ZM85.8547 56.9707H84.5481V60.5244H83.6692V56.9707H82.3801V56.2588H85.8547V56.9707ZM88.925 58.6758H87.2375V59.8184H89.218V60.5244H86.3586V56.2588H89.2122V56.9707H87.2375V57.9873H88.925V58.6758ZM91.3127 58.9629H90.6125V60.5244H89.7336V56.2588H91.3186C91.8225 56.2588 92.2112 56.3711 92.4846 56.5957C92.7581 56.8203 92.8948 57.1377 92.8948 57.5479C92.8948 57.8389 92.8313 58.082 92.7043 58.2773C92.5793 58.4707 92.3889 58.625 92.1331 58.7402L93.0559 60.4834V60.5244H92.1125L91.3127 58.9629ZM90.6125 58.251H91.3215C91.5422 58.251 91.7131 58.1953 91.8342 58.084C91.9553 57.9707 92.0159 57.8154 92.0159 57.6182C92.0159 57.417 91.9583 57.2588 91.843 57.1436C91.7297 57.0283 91.5549 56.9707 91.3186 56.9707H90.6125V58.251ZM95.9387 59.0215V60.5244H95.0598V56.2588H96.7239C97.0442 56.2588 97.3254 56.3174 97.5676 56.4346C97.8118 56.5518 97.9993 56.7188 98.1301 56.9355C98.261 57.1504 98.3264 57.3955 98.3264 57.6709C98.3264 58.0889 98.1829 58.4189 97.8958 58.6611C97.6106 58.9014 97.2151 59.0215 96.7092 59.0215H95.9387ZM95.9387 58.3096H96.7239C96.9563 58.3096 97.1331 58.2549 97.2542 58.1455C97.3772 58.0361 97.4387 57.8799 97.4387 57.6768C97.4387 57.4678 97.3772 57.2988 97.2542 57.1699C97.1311 57.041 96.9612 56.9746 96.7444 56.9707H95.9387V58.3096ZM101.499 58.6758H99.8118V59.8184H101.792V60.5244H98.9329V56.2588H101.786V56.9707H99.8118V57.9873H101.499V58.6758ZM105.577 56.9707H104.271V60.5244H103.392V56.9707H102.103V56.2588H105.577V56.9707ZM108.648 58.6758H106.96V59.8184H108.941V60.5244H106.081V56.2588H108.935V56.9707H106.96V57.9873H108.648V58.6758ZM111.035 58.9629H110.335V60.5244H109.456V56.2588H111.041C111.545 56.2588 111.934 56.3711 112.207 56.5957C112.481 56.8203 112.617 57.1377 112.617 57.5479C112.617 57.8389 112.554 58.082 112.427 58.2773C112.302 58.4707 112.112 58.625 111.856 58.7402L112.779 60.4834V60.5244H111.835L111.035 58.9629ZM110.335 58.251H111.044C111.265 58.251 111.436 58.1953 111.557 58.084C111.678 57.9707 111.739 57.8154 111.739 57.6182C111.739 57.417 111.681 57.2588 111.566 57.1436C111.452 57.0283 111.278 56.9707 111.041 56.9707H110.335V58.251ZM115.5 59.4053C115.5 59.2393 115.442 59.1123 115.324 59.0244C115.207 58.9346 114.996 58.8408 114.692 58.7432C114.387 58.6436 114.146 58.5459 113.968 58.4502C113.484 58.1885 113.241 57.8359 113.241 57.3926C113.241 57.1621 113.306 56.957 113.435 56.7773C113.566 56.5957 113.752 56.4541 113.994 56.3525C114.239 56.251 114.512 56.2002 114.815 56.2002C115.119 56.2002 115.391 56.2559 115.629 56.3672C115.867 56.4766 116.052 56.6318 116.183 56.833C116.316 57.0342 116.382 57.2627 116.382 57.5186H115.503C115.503 57.3232 115.442 57.1719 115.319 57.0645C115.196 56.9551 115.023 56.9004 114.8 56.9004C114.585 56.9004 114.418 56.9463 114.299 57.0381C114.18 57.1279 114.12 57.2471 114.12 57.3955C114.12 57.5342 114.19 57.6504 114.328 57.7441C114.469 57.8379 114.675 57.9258 114.947 58.0078C115.447 58.1582 115.811 58.3447 116.039 58.5674C116.268 58.79 116.382 59.0674 116.382 59.3994C116.382 59.7686 116.242 60.0586 115.963 60.2695C115.684 60.4785 115.308 60.583 114.835 60.583C114.507 60.583 114.208 60.5234 113.939 60.4043C113.669 60.2832 113.463 60.1182 113.321 59.9092C113.18 59.7002 113.11 59.458 113.11 59.1826H113.991C113.991 59.6533 114.273 59.8887 114.835 59.8887C115.044 59.8887 115.207 59.8467 115.324 59.7627C115.442 59.6768 115.5 59.5576 115.5 59.4053Z" fill="#AFB1B8"/>
<path d="M74.0891 58.7812V59.7812C74.6414 59.7812 75.0891 59.3335 75.0891 58.7812H74.0891ZM72.4016 58.7812V57.7812C71.8493 57.7812 71.4016 58.229 71.4016 58.7812H72.4016ZM72.4016 60.5244V61.5244C72.9539 61.5244 73.4016 61.0767 73.4016 60.5244H72.4016ZM71.5227 60.5244H70.5227C70.5227 61.0767 70.9704 61.5244 71.5227 61.5244V60.5244ZM71.5227 56.2588V55.2588C70.9704 55.2588 70.5227 55.7065 70.5227 56.2588H71.5227ZM74.3 56.2588H75.3C75.3 55.7065 74.8523 55.2588 74.3 55.2588V56.2588ZM74.3 56.9707V57.9707C74.8523 57.9707 75.3 57.523 75.3 56.9707H74.3ZM72.4016 56.9707V55.9707C71.8493 55.9707 71.4016 56.4184 71.4016 56.9707H72.4016ZM72.4016 58.0723H71.4016C71.4016 58.6246 71.8493 59.0723 72.4016 59.0723V58.0723ZM74.0891 58.0723H75.0891C75.0891 57.52 74.6414 57.0723 74.0891 57.0723V58.0723ZM74.0891 57.7812H72.4016V59.7812H74.0891V57.7812ZM71.4016 58.7812V60.5244H73.4016V58.7812H71.4016ZM72.4016 59.5244H71.5227V61.5244H72.4016V59.5244ZM72.5227 60.5244V56.2588H70.5227V60.5244H72.5227ZM71.5227 57.2588H74.3V55.2588H71.5227V57.2588ZM73.3 56.2588V56.9707H75.3V56.2588H73.3ZM74.3 55.9707H72.4016V57.9707H74.3V55.9707ZM71.4016 56.9707V58.0723H73.4016V56.9707H71.4016ZM72.4016 59.0723H74.0891V57.0723H72.4016V59.0723ZM73.0891 58.0723V58.7812H75.0891V58.0723H73.0891ZM77.4524 60.3252L76.9256 59.4752L76.9229 59.4769L77.4524 60.3252ZM74.9124 59.6016L74.0113 60.0354L74.0124 60.0376L74.9124 59.6016ZM74.6809 58.5117L73.6809 58.5117L73.6809 58.5165L74.6809 58.5117ZM74.9065 57.1934L74.0034 56.7639L74.0023 56.7662L74.9065 57.1934ZM75.5481 56.458L76.0732 57.309L76.0749 57.308L75.5481 56.458ZM77.4436 56.458L76.9141 57.3064L76.9212 57.3107L77.4436 56.458ZM78.0852 57.1934L77.18 57.6184L77.1832 57.625L78.0852 57.1934ZM75.8147 57.2725L76.6336 57.8464L76.6359 57.8431L75.8147 57.2725ZM75.5715 58.2803L74.5715 58.2759V58.2803H75.5715ZM77.1829 59.5166L78.0073 60.0825L78.0095 60.0793L77.1829 59.5166ZM77.4231 58.5029L78.4231 58.5073V58.5029H77.4231ZM77.3137 58.4883C77.3137 58.7905 77.2605 59.0086 77.1857 59.1681L78.9964 60.0175C79.2185 59.5441 79.3137 59.0259 79.3137 58.4883H77.3137ZM77.1857 59.1681C77.1135 59.3221 77.0264 59.4127 76.9256 59.4752L77.9792 61.1752C78.4331 60.8939 78.7718 60.4963 78.9964 60.0175L77.1857 59.1681ZM76.9229 59.4769C76.8222 59.5397 76.693 59.583 76.5032 59.583V61.583C77.0282 61.583 77.5318 61.4544 77.9819 61.1735L76.9229 59.4769ZM76.5032 59.583C76.3175 59.583 76.1858 59.5407 76.0793 59.4754L75.0345 61.1808C75.4826 61.4554 75.9819 61.583 76.5032 61.583V59.583ZM76.0793 59.4754C75.9773 59.4129 75.8877 59.3212 75.8123 59.1656L74.0124 60.0376C74.2417 60.5108 74.5818 60.9035 75.0345 61.1808L76.0793 59.4754ZM75.8134 59.1677C75.7354 59.0059 75.6823 58.7933 75.6809 58.507L73.6809 58.5165C73.6835 59.0504 73.7846 59.5644 74.0114 60.0354L75.8134 59.1677ZM75.6809 58.5117V58.3008H73.6809V58.5117H75.6809ZM75.6809 58.3008C75.6809 58.0005 75.7344 57.782 75.8107 57.6205L74.0023 56.7662C73.7778 57.2414 73.6809 57.7613 73.6809 58.3008H75.6809ZM75.8096 57.6229C75.8874 57.4592 75.9774 57.3681 76.0732 57.309L75.023 55.607C74.568 55.8877 74.2303 56.2869 74.0034 56.7639L75.8096 57.6229ZM76.0749 57.308C76.1799 57.2429 76.3107 57.2002 76.4973 57.2002V55.2002C75.973 55.2002 75.4709 55.3294 75.0213 55.608L76.0749 57.308ZM76.4973 57.2002C76.684 57.2002 76.8125 57.2429 76.9141 57.3063L77.9731 55.6097C77.5239 55.3294 77.0216 55.2002 76.4973 55.2002V57.2002ZM76.9212 57.3107C77.0172 57.3695 77.1051 57.4587 77.18 57.6184L78.9904 56.7684C78.7646 56.2874 78.4247 55.8863 77.966 55.6053L76.9212 57.3107ZM77.1832 57.625C77.2602 57.786 77.3137 58.002 77.3137 58.2979H79.3137C79.3137 57.7578 79.2149 57.2374 78.9872 56.7617L77.1832 57.625ZM77.3137 58.2979V58.4883H79.3137V58.2979H77.3137ZM78.4231 58.2949C78.4231 57.7541 78.3308 57.1789 78.0063 56.708L76.3594 57.8428C76.3544 57.8355 76.3716 57.8573 76.3897 57.9339C76.4079 58.0111 76.4231 58.1281 76.4231 58.2949H78.4231ZM78.0063 56.708C77.6483 56.1885 77.1029 55.9268 76.4973 55.9268V57.9268C76.5131 57.9268 76.4849 57.9291 76.4381 57.9053C76.4162 57.8942 76.3972 57.8807 76.3822 57.8673C76.3675 57.8541 76.3605 57.8444 76.3594 57.8428L78.0063 56.708ZM76.4973 55.9268C75.8946 55.9268 75.3516 56.1866 74.9935 56.7018L76.6359 57.8431C76.6347 57.8448 76.6276 57.8545 76.613 57.8676C76.598 57.8809 76.5791 57.8943 76.5573 57.9053C76.5106 57.9289 76.4823 57.9268 76.4973 57.9268V55.9268ZM74.9958 56.6985C74.6681 57.166 74.5739 57.7392 74.5715 58.2759L76.5715 58.2847C76.5722 58.1199 76.5878 58.0052 76.6059 57.9303C76.6238 57.8561 76.6403 57.8369 76.6336 57.8464L74.9958 56.6985ZM74.5715 58.2803V58.4883H76.5715V58.2803H74.5715ZM74.5715 58.4883C74.5715 59.0273 74.6675 59.5883 74.9797 60.0567L76.6438 58.9473C76.6357 58.9351 76.5715 58.8204 76.5715 58.4883H74.5715ZM74.9797 60.0567C75.3344 60.5887 75.8848 60.8623 76.5032 60.8623V58.8623C76.4883 58.8623 76.5185 58.8602 76.5669 58.8854C76.5894 58.8971 76.6085 58.9111 76.6231 58.9246C76.6374 58.9377 76.6436 58.947 76.6438 58.9473L74.9797 60.0567ZM76.5032 60.8623C77.1061 60.8623 77.6507 60.602 78.0073 60.0825L76.3584 58.9507C76.3601 58.9482 76.3677 58.9378 76.3831 58.924C76.3987 58.9099 76.4184 58.896 76.4409 58.8845C76.489 58.8601 76.5184 58.8623 76.5032 58.8623V60.8623ZM78.0095 60.0793C78.3274 59.6123 78.4207 59.0441 78.4231 58.5073L76.4231 58.4985C76.4224 58.6639 76.4069 58.7805 76.3885 58.8583C76.3702 58.9355 76.3526 58.9591 76.3562 58.9539L78.0095 60.0793ZM78.4231 58.5029V58.2949H76.4231V58.5029H78.4231ZM80.9885 59.0244L80.3801 59.8181L80.3885 59.8244L80.9885 59.0244ZM80.3557 58.7432L80.045 59.6937L80.0505 59.6954L80.3557 58.7432ZM79.6321 58.4502L79.1567 59.33L79.158 59.3307L79.6321 58.4502ZM79.0989 56.7773L78.2875 56.1928L78.2863 56.1944L79.0989 56.7773ZM79.6584 56.3525L79.2744 55.4292L79.2717 55.4303L79.6584 56.3525ZM81.2932 56.3672L80.8699 57.2732L80.876 57.276L81.2932 56.3672ZM81.8469 56.833L81.0086 57.3783L81.0124 57.384L81.8469 56.833ZM82.0461 57.5186V58.5186C82.5984 58.5186 83.0461 58.0708 83.0461 57.5186H82.0461ZM81.1672 57.5186H80.1672C80.1672 58.0708 80.615 58.5186 81.1672 58.5186V57.5186ZM80.9827 57.0645L80.3183 57.8119L80.325 57.8178L80.9827 57.0645ZM79.9631 57.0381L80.5653 57.8366L80.5735 57.8302L79.9631 57.0381ZM79.9924 57.7441L79.4323 58.5726L79.4377 58.5762L79.9924 57.7441ZM80.6106 58.0078L80.3214 58.9651L80.3226 58.9654L80.6106 58.0078ZM81.6272 60.2695L82.2263 61.0702L82.2299 61.0675L81.6272 60.2695ZM79.6028 60.4043L79.193 61.3165L79.1985 61.3189L79.6028 60.4043ZM78.9846 59.9092L78.1549 60.4675L78.1586 60.4728L78.9846 59.9092ZM78.7737 59.1826V58.1826C78.2214 58.1826 77.7737 58.6303 77.7737 59.1826H78.7737ZM79.6555 59.1826H80.6555C80.6555 58.6303 80.2078 58.1826 79.6555 58.1826V59.1826ZM80.9885 59.7627L81.5711 60.5756L81.5799 60.5691L80.9885 59.7627ZM82.1643 59.4053C82.1643 58.9725 81.9936 58.5282 81.5885 58.2244L80.3885 59.8244C80.321 59.7738 80.2559 59.6989 80.2124 59.6046C80.1708 59.5144 80.1643 59.4402 80.1643 59.4053H82.1643ZM81.597 58.2308C81.3326 58.0281 80.9776 57.8924 80.6609 57.7909L80.0505 59.6954C80.1806 59.7371 80.2736 59.7726 80.3363 59.8005C80.4053 59.8312 80.4086 59.8399 80.3801 59.818L81.597 58.2308ZM80.6665 57.7927C80.3895 57.7021 80.2105 57.6259 80.1062 57.5697L79.158 59.3307C79.4092 59.4659 79.7126 59.585 80.045 59.6937L80.6665 57.7927ZM80.1074 57.5704C79.9659 57.4939 79.9207 57.4367 79.9114 57.4233C79.9089 57.4197 79.908 57.4177 79.9078 57.4173C79.9076 57.417 79.9076 57.417 79.9076 57.417C79.9076 57.4169 79.9072 57.4155 79.9067 57.4121C79.9062 57.4087 79.9055 57.4024 79.9055 57.3926H77.9055C77.9055 58.2976 78.4415 58.9435 79.1567 59.33L80.1074 57.5704ZM79.9055 57.3926C79.9055 57.3817 79.9063 57.3746 79.9068 57.3709C79.9071 57.3689 79.9074 57.3676 79.9076 57.3669C79.9077 57.3662 79.9078 57.3658 79.9079 57.3657C79.9079 57.3657 79.9078 57.3658 79.9078 57.3659C79.9077 57.366 79.9077 57.3661 79.9078 57.3659C79.9079 57.3657 79.9088 57.3639 79.9114 57.3603L78.2863 56.1944C78.0302 56.5515 77.9055 56.9624 77.9055 57.3926H79.9055ZM79.9102 57.3619C79.9159 57.354 79.9431 57.3175 80.0452 57.2747L79.2717 55.4303C78.8894 55.5907 78.5435 55.8374 78.2875 56.1928L79.9102 57.3619ZM80.0425 57.2758C80.1486 57.2317 80.2889 57.2002 80.4788 57.2002V55.2002C80.0632 55.2002 79.6566 55.2702 79.2744 55.4292L80.0425 57.2758ZM80.4788 57.2002C80.6603 57.2002 80.7836 57.2328 80.8699 57.2732L81.7165 55.4612C81.3263 55.2789 80.9066 55.2002 80.4788 55.2002V57.2002ZM80.876 57.276C80.9589 57.3141 80.9904 57.3502 81.0087 57.3783L82.6852 56.2877C82.4417 55.9134 82.1041 55.6391 81.7104 55.4584L80.876 57.276ZM81.0124 57.384C81.0305 57.4114 81.0461 57.446 81.0461 57.5186H83.0461C83.0461 57.0794 82.929 56.6569 82.6815 56.2821L81.0124 57.384ZM82.0461 56.5186H81.1672V58.5186H82.0461V56.5186ZM82.1672 57.5186C82.1672 57.0964 82.0236 56.6457 81.6403 56.3111L80.325 57.8178C80.2687 57.7686 80.2228 57.7042 80.1947 57.6351C80.1683 57.5703 80.1672 57.5253 80.1672 57.5186H82.1672ZM81.647 56.317C81.2848 55.9951 80.8445 55.9004 80.4641 55.9004V57.9004C80.4955 57.9004 80.4895 57.9045 80.4591 57.8948C80.4252 57.8841 80.3721 57.8597 80.3183 57.8119L81.647 56.317ZM80.4641 55.9004C80.1204 55.9004 79.7079 55.9724 79.3528 56.2459L80.5735 57.8302C80.5158 57.8746 80.4657 57.8928 80.4428 57.8991C80.4221 57.9047 80.4257 57.9004 80.4641 57.9004V55.9004ZM79.361 56.2397C78.9929 56.5173 78.7844 56.9313 78.7844 57.3955H80.7844C80.7844 57.4586 80.7708 57.5475 80.7235 57.642C80.6764 57.7364 80.6139 57.7998 80.5652 57.8365L79.361 56.2397ZM78.7844 57.3955C78.7844 57.9378 79.0837 58.3369 79.4324 58.5726L80.5525 56.9157C80.5766 56.932 80.639 56.9802 80.6952 57.0743C80.7553 57.1751 80.7844 57.2891 80.7844 57.3955H78.7844ZM79.4377 58.5762C79.697 58.749 80.0103 58.8711 80.3214 58.9651L80.8998 57.0506C80.668 56.9805 80.5691 56.9268 80.5471 56.9121L79.4377 58.5762ZM80.3226 58.9654C80.7554 59.0956 80.9432 59.2229 81.0055 59.2836L82.4012 57.8512C82.0065 57.4665 81.4657 57.2208 80.8986 57.0502L80.3226 58.9654ZM81.0055 59.2836C81.0284 59.3059 81.0339 59.3186 81.0358 59.3233C81.0381 59.3288 81.0461 59.3501 81.0461 59.3994H83.0461C83.0461 58.81 82.8316 58.2704 82.4012 57.8512L81.0055 59.2836ZM81.0461 59.3994C81.0461 59.4286 81.0434 59.4461 81.0417 59.4542C81.04 59.4619 81.039 59.4629 81.0404 59.46C81.0419 59.4569 81.0435 59.4549 81.0434 59.455C81.0431 59.4554 81.0381 59.4613 81.0245 59.4715L82.2299 61.0675C82.7749 60.6559 83.0461 60.0621 83.0461 59.3994H81.0461ZM81.0281 59.4689C80.9738 59.5095 80.8316 59.583 80.4993 59.583V61.583C81.1122 61.583 81.722 61.4476 82.2263 61.0702L81.0281 59.4689ZM80.4993 59.583C80.2945 59.583 80.1355 59.5464 80.0071 59.4897L79.1985 61.3189C79.6091 61.5004 80.0478 61.583 80.4993 61.583V59.583ZM80.0126 59.4921C79.8826 59.4337 79.8329 59.3782 79.8107 59.3456L78.1586 60.4728C78.4215 60.8581 78.7839 61.1327 79.193 61.3165L80.0126 59.4921ZM79.8143 59.3509C79.795 59.3223 79.7737 59.2785 79.7737 59.1826H77.7737C77.7737 59.6375 77.893 60.0781 78.155 60.4675L79.8143 59.3509ZM78.7737 60.1826H79.6555V58.1826H78.7737V60.1826ZM78.6555 59.1826C78.6555 59.6235 78.7957 60.1201 79.2247 60.4791C79.6195 60.8095 80.103 60.8887 80.4993 60.8887V58.8887C80.4251 58.8887 80.3961 58.8806 80.3988 58.8813C80.404 58.8828 80.4504 58.8969 80.5082 58.9452C80.5698 58.9968 80.6134 59.0614 80.6373 59.1215C80.6587 59.1754 80.6555 59.2028 80.6555 59.1826H78.6555ZM80.4993 60.8887C80.8272 60.8887 81.2231 60.8248 81.571 60.5755L80.406 58.9499C80.4633 58.9088 80.5106 58.8935 80.529 58.8888C80.5457 58.8845 80.5389 58.8887 80.4993 58.8887V60.8887ZM81.5799 60.5691C81.9682 60.2843 82.1643 59.8581 82.1643 59.4053H80.1643C80.1643 59.351 80.1755 59.2643 80.223 59.1676C80.2714 59.0692 80.3384 58.9994 80.3972 58.9563L81.5799 60.5691ZM85.8547 56.9707V57.9707C86.407 57.9707 86.8547 57.523 86.8547 56.9707H85.8547ZM84.5481 56.9707V55.9707C83.9958 55.9707 83.5481 56.4184 83.5481 56.9707H84.5481ZM84.5481 60.5244V61.5244C85.1004 61.5244 85.5481 61.0767 85.5481 60.5244H84.5481ZM83.6692 60.5244H82.6692C82.6692 61.0767 83.1169 61.5244 83.6692 61.5244V60.5244ZM83.6692 56.9707H84.6692C84.6692 56.4184 84.2215 55.9707 83.6692 55.9707V56.9707ZM82.3801 56.9707H81.3801C81.3801 57.523 81.8278 57.9707 82.3801 57.9707V56.9707ZM82.3801 56.2588V55.2588C81.8278 55.2588 81.3801 55.7065 81.3801 56.2588H82.3801ZM85.8547 56.2588H86.8547C86.8547 55.7065 86.407 55.2588 85.8547 55.2588V56.2588ZM85.8547 55.9707H84.5481V57.9707H85.8547V55.9707ZM83.5481 56.9707V60.5244H85.5481V56.9707H83.5481ZM84.5481 59.5244H83.6692V61.5244H84.5481V59.5244ZM84.6692 60.5244V56.9707H82.6692V60.5244H84.6692ZM83.6692 55.9707H82.3801V57.9707H83.6692V55.9707ZM83.3801 56.9707V56.2588H81.3801V56.9707H83.3801ZM82.3801 57.2588H85.8547V55.2588H82.3801V57.2588ZM84.8547 56.2588V56.9707H86.8547V56.2588H84.8547ZM88.925 58.6758V59.6758C89.4773 59.6758 89.925 59.2281 89.925 58.6758H88.925ZM87.2375 58.6758V57.6758C86.6853 57.6758 86.2375 58.1235 86.2375 58.6758H87.2375ZM87.2375 59.8184H86.2375C86.2375 60.3706 86.6853 60.8184 87.2375 60.8184V59.8184ZM89.218 59.8184H90.218C90.218 59.2661 89.7703 58.8184 89.218 58.8184V59.8184ZM89.218 60.5244V61.5244C89.7703 61.5244 90.218 61.0767 90.218 60.5244H89.218ZM86.3586 60.5244H85.3586C85.3586 61.0767 85.8064 61.5244 86.3586 61.5244V60.5244ZM86.3586 56.2588V55.2588C85.8064 55.2588 85.3586 55.7065 85.3586 56.2588H86.3586ZM89.2122 56.2588H90.2122C90.2122 55.7065 89.7644 55.2588 89.2122 55.2588V56.2588ZM89.2122 56.9707V57.9707C89.7644 57.9707 90.2122 57.523 90.2122 56.9707H89.2122ZM87.2375 56.9707V55.9707C86.6853 55.9707 86.2375 56.4184 86.2375 56.9707H87.2375ZM87.2375 57.9873H86.2375C86.2375 58.5396 86.6853 58.9873 87.2375 58.9873V57.9873ZM88.925 57.9873H89.925C89.925 57.435 89.4773 56.9873 88.925 56.9873V57.9873ZM88.925 57.6758H87.2375V59.6758H88.925V57.6758ZM86.2375 58.6758V59.8184H88.2375V58.6758H86.2375ZM87.2375 60.8184H89.218V58.8184H87.2375V60.8184ZM88.218 59.8184V60.5244H90.218V59.8184H88.218ZM89.218 59.5244H86.3586V61.5244H89.218V59.5244ZM87.3586 60.5244V56.2588H85.3586V60.5244H87.3586ZM86.3586 57.2588H89.2122V55.2588H86.3586V57.2588ZM88.2122 56.2588V56.9707H90.2122V56.2588H88.2122ZM89.2122 55.9707H87.2375V57.9707H89.2122V55.9707ZM86.2375 56.9707V57.9873H88.2375V56.9707H86.2375ZM87.2375 58.9873H88.925V56.9873H87.2375V58.9873ZM87.925 57.9873V58.6758H89.925V57.9873H87.925ZM91.3127 58.9629L92.2028 58.507C92.0317 58.173 91.688 57.9629 91.3127 57.9629V58.9629ZM90.6125 58.9629V57.9629C90.0603 57.9629 89.6125 58.4106 89.6125 58.9629H90.6125ZM90.6125 60.5244V61.5244C91.1648 61.5244 91.6125 61.0767 91.6125 60.5244H90.6125ZM89.7336 60.5244H88.7336C88.7336 61.0767 89.1814 61.5244 89.7336 61.5244V60.5244ZM89.7336 56.2588V55.2588C89.1814 55.2588 88.7336 55.7065 88.7336 56.2588H89.7336ZM92.7043 58.2773L91.8659 57.7324L91.8645 57.7344L92.7043 58.2773ZM92.1331 58.7402L91.7224 57.8284C91.4705 57.9419 91.2768 58.1545 91.1871 58.4158C91.0975 58.6772 91.12 58.964 91.2493 59.2081L92.1331 58.7402ZM93.0559 60.4834H94.0559C94.0559 60.3203 94.016 60.1597 93.9397 60.0155L93.0559 60.4834ZM93.0559 60.5244V61.5244C93.6082 61.5244 94.0559 61.0767 94.0559 60.5244H93.0559ZM92.1125 60.5244L91.2225 60.9803C91.3936 61.3143 91.7373 61.5244 92.1125 61.5244V60.5244ZM90.6125 58.251H89.6125C89.6125 58.8033 90.0603 59.251 90.6125 59.251V58.251ZM91.8342 58.084L92.5111 58.8202L92.5174 58.8143L91.8342 58.084ZM91.843 57.1436L91.1299 57.8446L91.1359 57.8507L91.843 57.1436ZM90.6125 56.9707V55.9707C90.0603 55.9707 89.6125 56.4184 89.6125 56.9707H90.6125ZM91.3127 57.9629H90.6125V59.9629H91.3127V57.9629ZM89.6125 58.9629V60.5244H91.6125V58.9629H89.6125ZM90.6125 59.5244H89.7336V61.5244H90.6125V59.5244ZM90.7336 60.5244V56.2588H88.7336V60.5244H90.7336ZM89.7336 57.2588H91.3186V55.2588H89.7336V57.2588ZM91.3186 57.2588C91.6873 57.2588 91.8178 57.3421 91.8499 57.3684L93.1194 55.823C92.6046 55.4001 91.9578 55.2588 91.3186 55.2588V57.2588ZM91.8499 57.3684C91.8664 57.382 91.8701 57.3893 91.8738 57.3978C91.8793 57.4105 91.8948 57.4538 91.8948 57.5479H93.8948C93.8948 56.8917 93.6622 56.2689 93.1194 55.823L91.8499 57.3684ZM91.8948 57.5479C91.8948 57.6212 91.8867 57.6686 91.8796 57.6959C91.8728 57.7219 91.8665 57.7314 91.8659 57.7324L93.5428 58.8223C93.7987 58.4286 93.8948 57.9841 93.8948 57.5479H91.8948ZM91.8645 57.7344C91.8629 57.7369 91.8568 57.7461 91.8382 57.7611C91.8187 57.7769 91.783 57.8012 91.7224 57.8284L92.5437 59.652C92.9365 59.4751 93.2937 59.2076 93.5441 58.8202L91.8645 57.7344ZM91.2493 59.2081L92.1721 60.9513L93.9397 60.0155L93.0168 58.2723L91.2493 59.2081ZM92.0559 60.4834V60.5244H94.0559V60.4834H92.0559ZM93.0559 59.5244H92.1125V61.5244H93.0559V59.5244ZM93.0026 60.0685L92.2028 58.507L90.4227 59.4188L91.2225 60.9803L93.0026 60.0685ZM90.6125 59.251H91.3215V57.251H90.6125V59.251ZM91.3215 59.251C91.7057 59.251 92.1499 59.1521 92.511 58.8202L91.1574 57.3478C91.2119 57.2977 91.2674 57.2708 91.3055 57.2584C91.3399 57.2472 91.3498 57.251 91.3215 57.251V59.251ZM92.5174 58.8143C92.8787 58.4762 93.0159 58.0353 93.0159 57.6182H91.0159C91.0159 57.6149 91.0164 57.5766 91.0388 57.5193C91.0626 57.4583 91.1018 57.3998 91.1511 57.3537L92.5174 58.8143ZM93.0159 57.6182C93.0159 57.2177 92.8949 56.7812 92.5501 56.4364L91.1359 57.8507C91.0869 57.8016 91.0525 57.7442 91.033 57.6908C91.015 57.6412 91.0159 57.6122 91.0159 57.6182H93.0159ZM92.5561 56.4425C92.1828 56.0627 91.699 55.9707 91.3186 55.9707V57.9707C91.359 57.9707 91.3515 57.9761 91.3139 57.9637C91.2712 57.9496 91.1996 57.9155 91.1299 57.8446L92.5561 56.4425ZM91.3186 55.9707H90.6125V57.9707H91.3186V55.9707ZM89.6125 56.9707V58.251H91.6125V56.9707H89.6125ZM95.9387 59.0215V58.0215C95.3864 58.0215 94.9387 58.4692 94.9387 59.0215H95.9387ZM95.9387 60.5244V61.5244C96.491 61.5244 96.9387 61.0767 96.9387 60.5244H95.9387ZM95.0598 60.5244H94.0598C94.0598 61.0767 94.5075 61.5244 95.0598 61.5244V60.5244ZM95.0598 56.2588V55.2588C94.5075 55.2588 94.0598 55.7065 94.0598 56.2588H95.0598ZM97.5676 56.4346L97.1321 57.3347L97.1349 57.3361L97.5676 56.4346ZM98.1301 56.9355L97.274 57.4523L97.2761 57.4557L98.1301 56.9355ZM97.8958 58.6611L98.54 59.4259L98.5405 59.4255L97.8958 58.6611ZM95.9387 58.3096H94.9387C94.9387 58.8619 95.3864 59.3096 95.9387 59.3096V58.3096ZM97.2542 58.1455L96.5898 57.3981L96.5839 57.4034L97.2542 58.1455ZM96.7444 56.9707L96.7624 55.9709C96.7564 55.9708 96.7504 55.9707 96.7444 55.9707V56.9707ZM95.9387 56.9707V55.9707C95.3864 55.9707 94.9387 56.4184 94.9387 56.9707H95.9387ZM94.9387 59.0215V60.5244H96.9387V59.0215H94.9387ZM95.9387 59.5244H95.0598V61.5244H95.9387V59.5244ZM96.0598 60.5244V56.2588H94.0598V60.5244H96.0598ZM95.0598 57.2588H96.7239V55.2588H95.0598V57.2588ZM96.7239 57.2588C96.9218 57.2588 97.0492 57.2946 97.1321 57.3347L98.0032 55.5344C97.6017 55.3402 97.1666 55.2588 96.7239 55.2588V57.2588ZM97.1349 57.3361C97.2162 57.3751 97.2509 57.414 97.274 57.4523L98.9863 56.4188C98.7477 56.0235 98.4073 55.7284 98.0004 55.533L97.1349 57.3361ZM97.2761 57.4557C97.3025 57.4992 97.3264 57.561 97.3264 57.6709H99.3264C99.3264 57.23 99.2194 56.8016 98.9842 56.4154L97.2761 57.4557ZM97.3264 57.6709C97.3264 57.8316 97.2857 57.8675 97.251 57.8968L98.5405 59.4255C99.08 58.9704 99.3264 58.3461 99.3264 57.6709H97.3264ZM97.2515 57.8964C97.202 57.938 97.0635 58.0215 96.7092 58.0215V60.0215C97.3666 60.0215 98.0192 59.8647 98.54 59.4259L97.2515 57.8964ZM96.7092 58.0215H95.9387V60.0215H96.7092V58.0215ZM95.9387 59.3096H96.7239V57.3096H95.9387V59.3096ZM96.7239 59.3096C97.0996 59.3096 97.5545 59.2217 97.9244 58.8876L96.5839 57.4034C96.6448 57.3483 96.7033 57.3231 96.7352 57.3132C96.7634 57.3045 96.7643 57.3096 96.7239 57.3096V59.3096ZM97.9185 58.8929C98.3037 58.5506 98.4387 58.0933 98.4387 57.6768H96.4387C96.4387 57.6785 96.4384 57.6401 96.4621 57.5799C96.4877 57.5149 96.5315 57.4499 96.5898 57.3981L97.9185 58.8929ZM98.4387 57.6768C98.4387 57.2581 98.3084 56.8261 97.9775 56.4794L96.5308 57.8604C96.4961 57.824 96.469 57.7796 96.4529 57.7355C96.4379 57.6941 96.4387 57.6704 96.4387 57.6768H98.4387ZM97.9775 56.4794C97.6314 56.1169 97.1844 55.9785 96.7624 55.9709L96.7264 57.9705C96.7381 57.9708 96.7145 57.972 96.6704 57.9548C96.6228 57.9362 96.5725 57.9041 96.5308 57.8604L97.9775 56.4794ZM96.7444 55.9707H95.9387V57.9707H96.7444V55.9707ZM94.9387 56.9707V58.3096H96.9387V56.9707H94.9387ZM101.499 58.6758V59.6758C102.052 59.6758 102.499 59.2281 102.499 58.6758H101.499ZM99.8118 58.6758V57.6758C99.2595 57.6758 98.8118 58.1235 98.8118 58.6758H99.8118ZM99.8118 59.8184H98.8118C98.8118 60.3706 99.2595 60.8184 99.8118 60.8184V59.8184ZM101.792 59.8184H102.792C102.792 59.2661 102.345 58.8184 101.792 58.8184V59.8184ZM101.792 60.5244V61.5244C102.345 61.5244 102.792 61.0767 102.792 60.5244H101.792ZM98.9329 60.5244H97.9329C97.9329 61.0767 98.3806 61.5244 98.9329 61.5244V60.5244ZM98.9329 56.2588V55.2588C98.3806 55.2588 97.9329 55.7065 97.9329 56.2588H98.9329ZM101.786 56.2588H102.786C102.786 55.7065 102.339 55.2588 101.786 55.2588V56.2588ZM101.786 56.9707V57.9707C102.339 57.9707 102.786 57.523 102.786 56.9707H101.786ZM99.8118 56.9707V55.9707C99.2595 55.9707 98.8118 56.4184 98.8118 56.9707H99.8118ZM99.8118 57.9873H98.8118C98.8118 58.5396 99.2595 58.9873 99.8118 58.9873V57.9873ZM101.499 57.9873H102.499C102.499 57.435 102.052 56.9873 101.499 56.9873V57.9873ZM101.499 57.6758H99.8118V59.6758H101.499V57.6758ZM98.8118 58.6758V59.8184H100.812V58.6758H98.8118ZM99.8118 60.8184H101.792V58.8184H99.8118V60.8184ZM100.792 59.8184V60.5244H102.792V59.8184H100.792ZM101.792 59.5244H98.9329V61.5244H101.792V59.5244ZM99.9329 60.5244V56.2588H97.9329V60.5244H99.9329ZM98.9329 57.2588H101.786V55.2588H98.9329V57.2588ZM100.786 56.2588V56.9707H102.786V56.2588H100.786ZM101.786 55.9707H99.8118V57.9707H101.786V55.9707ZM98.8118 56.9707V57.9873H100.812V56.9707H98.8118ZM99.8118 58.9873H101.499V56.9873H99.8118V58.9873ZM100.499 57.9873V58.6758H102.499V57.9873H100.499ZM105.577 56.9707V57.9707C106.13 57.9707 106.577 57.523 106.577 56.9707H105.577ZM104.271 56.9707V55.9707C103.718 55.9707 103.271 56.4184 103.271 56.9707H104.271ZM104.271 60.5244V61.5244C104.823 61.5244 105.271 61.0767 105.271 60.5244H104.271ZM103.392 60.5244H102.392C102.392 61.0767 102.84 61.5244 103.392 61.5244V60.5244ZM103.392 56.9707H104.392C104.392 56.4184 103.944 55.9707 103.392 55.9707V56.9707ZM102.103 56.9707H101.103C101.103 57.523 101.55 57.9707 102.103 57.9707V56.9707ZM102.103 56.2588V55.2588C101.55 55.2588 101.103 55.7065 101.103 56.2588H102.103ZM105.577 56.2588H106.577C106.577 55.7065 106.13 55.2588 105.577 55.2588V56.2588ZM105.577 55.9707H104.271V57.9707H105.577V55.9707ZM103.271 56.9707V60.5244H105.271V56.9707H103.271ZM104.271 59.5244H103.392V61.5244H104.271V59.5244ZM104.392 60.5244V56.9707H102.392V60.5244H104.392ZM103.392 55.9707H102.103V57.9707H103.392V55.9707ZM103.103 56.9707V56.2588H101.103V56.9707H103.103ZM102.103 57.2588H105.577V55.2588H102.103V57.2588ZM104.577 56.2588V56.9707H106.577V56.2588H104.577ZM108.648 58.6758V59.6758C109.2 59.6758 109.648 59.2281 109.648 58.6758H108.648ZM106.96 58.6758V57.6758C106.408 57.6758 105.96 58.1235 105.96 58.6758H106.96ZM106.96 59.8184H105.96C105.96 60.3706 106.408 60.8184 106.96 60.8184V59.8184ZM108.941 59.8184H109.941C109.941 59.2661 109.493 58.8184 108.941 58.8184V59.8184ZM108.941 60.5244V61.5244C109.493 61.5244 109.941 61.0767 109.941 60.5244H108.941ZM106.081 60.5244H105.081C105.081 61.0767 105.529 61.5244 106.081 61.5244V60.5244ZM106.081 56.2588V55.2588C105.529 55.2588 105.081 55.7065 105.081 56.2588H106.081ZM108.935 56.2588H109.935C109.935 55.7065 109.487 55.2588 108.935 55.2588V56.2588ZM108.935 56.9707V57.9707C109.487 57.9707 109.935 57.523 109.935 56.9707H108.935ZM106.96 56.9707V55.9707C106.408 55.9707 105.96 56.4184 105.96 56.9707H106.96ZM106.96 57.9873H105.96C105.96 58.5396 106.408 58.9873 106.96 58.9873V57.9873ZM108.648 57.9873H109.648C109.648 57.435 109.2 56.9873 108.648 56.9873V57.9873ZM108.648 57.6758H106.96V59.6758H108.648V57.6758ZM105.96 58.6758V59.8184H107.96V58.6758H105.96ZM106.96 60.8184H108.941V58.8184H106.96V60.8184ZM107.941 59.8184V60.5244H109.941V59.8184H107.941ZM108.941 59.5244H106.081V61.5244H108.941V59.5244ZM107.081 60.5244V56.2588H105.081V60.5244H107.081ZM106.081 57.2588H108.935V55.2588H106.081V57.2588ZM107.935 56.2588V56.9707H109.935V56.2588H107.935ZM108.935 55.9707H106.96V57.9707H108.935V55.9707ZM105.96 56.9707V57.9873H107.96V56.9707H105.96ZM106.96 58.9873H108.648V56.9873H106.96V58.9873ZM107.648 57.9873V58.6758H109.648V57.9873H107.648ZM111.035 58.9629L111.925 58.507C111.754 58.173 111.411 57.9629 111.035 57.9629V58.9629ZM110.335 58.9629V57.9629C109.783 57.9629 109.335 58.4106 109.335 58.9629H110.335ZM110.335 60.5244V61.5244C110.887 61.5244 111.335 61.0767 111.335 60.5244H110.335ZM109.456 60.5244H108.456C108.456 61.0767 108.904 61.5244 109.456 61.5244V60.5244ZM109.456 56.2588V55.2588C108.904 55.2588 108.456 55.7065 108.456 56.2588H109.456ZM112.427 58.2773L111.589 57.7324L111.587 57.7344L112.427 58.2773ZM111.856 58.7402L111.445 57.8284C111.193 57.9419 110.999 58.1545 110.91 58.4158C110.82 58.6772 110.843 58.964 110.972 59.2081L111.856 58.7402ZM112.779 60.4834H113.779C113.779 60.3203 113.739 60.1597 113.662 60.0155L112.779 60.4834ZM112.779 60.5244V61.5244C113.331 61.5244 113.779 61.0767 113.779 60.5244H112.779ZM111.835 60.5244L110.945 60.9803C111.116 61.3143 111.46 61.5244 111.835 61.5244V60.5244ZM110.335 58.251H109.335C109.335 58.8033 109.783 59.251 110.335 59.251V58.251ZM111.557 58.084L112.234 58.8202L112.24 58.8143L111.557 58.084ZM111.566 57.1436L110.853 57.8446L110.859 57.8507L111.566 57.1436ZM110.335 56.9707V55.9707C109.783 55.9707 109.335 56.4184 109.335 56.9707H110.335ZM111.035 57.9629H110.335V59.9629H111.035V57.9629ZM109.335 58.9629V60.5244H111.335V58.9629H109.335ZM110.335 59.5244H109.456V61.5244H110.335V59.5244ZM110.456 60.5244V56.2588H108.456V60.5244H110.456ZM109.456 57.2588H111.041V55.2588H109.456V57.2588ZM111.041 57.2588C111.41 57.2588 111.54 57.3421 111.573 57.3684L112.842 55.823C112.327 55.4001 111.68 55.2588 111.041 55.2588V57.2588ZM111.573 57.3684C111.589 57.382 111.593 57.3893 111.596 57.3978C111.602 57.4105 111.617 57.4538 111.617 57.5479H113.617C113.617 56.8917 113.385 56.2689 112.842 55.823L111.573 57.3684ZM111.617 57.5479C111.617 57.6212 111.609 57.6686 111.602 57.6959C111.595 57.7219 111.589 57.7314 111.589 57.7324L113.265 58.8223C113.521 58.4286 113.617 57.9841 113.617 57.5479H111.617ZM111.587 57.7344C111.586 57.7369 111.579 57.7461 111.561 57.7611C111.541 57.7769 111.506 57.8012 111.445 57.8284L112.266 59.652C112.659 59.4751 113.016 59.2076 113.267 58.8202L111.587 57.7344ZM110.972 59.2081L111.895 60.9513L113.662 60.0155L112.74 58.2723L110.972 59.2081ZM111.779 60.4834V60.5244H113.779V60.4834H111.779ZM112.779 59.5244H111.835V61.5244H112.779V59.5244ZM112.725 60.0685L111.925 58.507L110.145 59.4188L110.945 60.9803L112.725 60.0685ZM110.335 59.251H111.044V57.251H110.335V59.251ZM111.044 59.251C111.428 59.251 111.873 59.1521 112.234 58.8202L110.88 57.3478C110.935 57.2977 110.99 57.2708 111.028 57.2584C111.063 57.2472 111.072 57.251 111.044 57.251V59.251ZM112.24 58.8143C112.601 58.4762 112.739 58.0353 112.739 57.6182H110.739C110.739 57.6149 110.739 57.5766 110.761 57.5193C110.785 57.4583 110.824 57.3998 110.874 57.3537L112.24 58.8143ZM112.739 57.6182C112.739 57.2177 112.618 56.7812 112.273 56.4364L110.859 57.8507C110.81 57.8016 110.775 57.7442 110.756 57.6908C110.738 57.6412 110.739 57.6122 110.739 57.6182H112.739ZM112.279 56.4425C111.905 56.0627 111.422 55.9707 111.041 55.9707V57.9707C111.082 57.9707 111.074 57.9761 111.037 57.9637C110.994 57.9496 110.922 57.9155 110.853 57.8446L112.279 56.4425ZM111.041 55.9707H110.335V57.9707H111.041V55.9707ZM109.335 56.9707V58.251H111.335V56.9707H109.335ZM115.324 59.0244L114.716 59.8181L114.724 59.8244L115.324 59.0244ZM114.692 58.7432L114.381 59.6937L114.386 59.6954L114.692 58.7432ZM113.968 58.4502L113.493 59.33L113.494 59.3307L113.968 58.4502ZM113.435 56.7773L112.623 56.1928L112.622 56.1944L113.435 56.7773ZM113.994 56.3525L113.61 55.4292L113.608 55.4303L113.994 56.3525ZM115.629 56.3672L115.206 57.2732L115.212 57.276L115.629 56.3672ZM116.183 56.833L115.345 57.3783L115.348 57.384L116.183 56.833ZM116.382 57.5186V58.5186C116.934 58.5186 117.382 58.0708 117.382 57.5186H116.382ZM115.503 57.5186H114.503C114.503 58.0708 114.951 58.5186 115.503 58.5186V57.5186ZM115.319 57.0645L114.654 57.8119L114.661 57.8178L115.319 57.0645ZM114.299 57.0381L114.901 57.8366L114.909 57.8302L114.299 57.0381ZM114.328 57.7441L113.768 58.5726L113.774 58.5762L114.328 57.7441ZM114.947 58.0078L114.657 58.9651L114.658 58.9654L114.947 58.0078ZM115.963 60.2695L116.562 61.0702L116.566 61.0675L115.963 60.2695ZM113.939 60.4043L113.529 61.3165L113.534 61.3189L113.939 60.4043ZM113.321 59.9092L112.491 60.4675L112.494 60.4728L113.321 59.9092ZM113.11 59.1826V58.1826C112.557 58.1826 112.11 58.6303 112.11 59.1826H113.11ZM113.991 59.1826H114.991C114.991 58.6303 114.544 58.1826 113.991 58.1826V59.1826ZM115.324 59.7627L115.907 60.5756L115.916 60.5691L115.324 59.7627ZM116.5 59.4053C116.5 58.9725 116.33 58.5282 115.924 58.2244L114.724 59.8244C114.657 59.7738 114.592 59.6989 114.548 59.6046C114.507 59.5144 114.5 59.4402 114.5 59.4053H116.5ZM115.933 58.2308C115.669 58.0281 115.314 57.8924 114.997 57.7909L114.386 59.6954C114.516 59.7371 114.609 59.7726 114.672 59.8005C114.741 59.8312 114.745 59.8399 114.716 59.818L115.933 58.2308ZM115.002 57.7927C114.725 57.7021 114.546 57.6259 114.442 57.5697L113.494 59.3307C113.745 59.4659 114.049 59.585 114.381 59.6937L115.002 57.7927ZM114.443 57.5704C114.302 57.4939 114.257 57.4367 114.247 57.4233C114.245 57.4197 114.244 57.4177 114.244 57.4173C114.244 57.417 114.244 57.417 114.244 57.417C114.244 57.4169 114.243 57.4155 114.243 57.4121C114.242 57.4087 114.241 57.4024 114.241 57.3926H112.241C112.241 58.2976 112.777 58.9435 113.493 59.33L114.443 57.5704ZM114.241 57.3926C114.241 57.3817 114.242 57.3746 114.243 57.3709C114.243 57.3689 114.243 57.3676 114.243 57.3669C114.244 57.3662 114.244 57.3658 114.244 57.3657C114.244 57.3657 114.244 57.3658 114.244 57.3659C114.244 57.366 114.244 57.3661 114.244 57.3659C114.244 57.3657 114.245 57.3639 114.247 57.3603L112.622 56.1944C112.366 56.5515 112.241 56.9624 112.241 57.3926H114.241ZM114.246 57.3619C114.252 57.354 114.279 57.3175 114.381 57.2747L113.608 55.4303C113.225 55.5907 112.879 55.8374 112.623 56.1928L114.246 57.3619ZM114.378 57.2758C114.485 57.2317 114.625 57.2002 114.815 57.2002V55.2002C114.399 55.2002 113.993 55.2702 113.61 55.4292L114.378 57.2758ZM114.815 57.2002C114.996 57.2002 115.12 57.2328 115.206 57.2732L116.052 55.4612C115.662 55.2789 115.243 55.2002 114.815 55.2002V57.2002ZM115.212 57.276C115.295 57.3141 115.326 57.3502 115.345 57.3783L117.021 56.2877C116.778 55.9134 116.44 55.6391 116.046 55.4584L115.212 57.276ZM115.348 57.384C115.366 57.4114 115.382 57.446 115.382 57.5186H117.382C117.382 57.0794 117.265 56.6569 117.017 56.2821L115.348 57.384ZM116.382 56.5186H115.503V58.5186H116.382V56.5186ZM116.503 57.5186C116.503 57.0964 116.36 56.6457 115.976 56.3111L114.661 57.8178C114.605 57.7686 114.559 57.7042 114.531 57.6351C114.504 57.5703 114.503 57.5253 114.503 57.5186H116.503ZM115.983 56.317C115.621 55.9951 115.18 55.9004 114.8 55.9004V57.9004C114.831 57.9004 114.825 57.9045 114.795 57.8948C114.761 57.8841 114.708 57.8597 114.654 57.8119L115.983 56.317ZM114.8 55.9004C114.456 55.9004 114.044 55.9724 113.689 56.2459L114.909 57.8302C114.852 57.8746 114.802 57.8928 114.779 57.8991C114.758 57.9047 114.762 57.9004 114.8 57.9004V55.9004ZM113.697 56.2397C113.329 56.5173 113.12 56.9313 113.12 57.3955H115.12C115.12 57.4586 115.107 57.5475 115.059 57.642C115.012 57.7364 114.95 57.7998 114.901 57.8365L113.697 56.2397ZM113.12 57.3955C113.12 57.9378 113.42 58.3369 113.768 58.5726L114.888 56.9157C114.913 56.932 114.975 56.9802 115.031 57.0743C115.091 57.1751 115.12 57.2891 115.12 57.3955H113.12ZM113.774 58.5762C114.033 58.749 114.346 58.8711 114.657 58.9651L115.236 57.0506C115.004 56.9805 114.905 56.9268 114.883 56.9121L113.774 58.5762ZM114.658 58.9654C115.091 59.0956 115.279 59.2229 115.341 59.2836L116.737 57.8512C116.342 57.4665 115.802 57.2208 115.235 57.0502L114.658 58.9654ZM115.341 59.2836C115.364 59.3059 115.37 59.3186 115.372 59.3233C115.374 59.3288 115.382 59.3501 115.382 59.3994H117.382C117.382 58.81 117.167 58.2704 116.737 57.8512L115.341 59.2836ZM115.382 59.3994C115.382 59.4286 115.379 59.4461 115.378 59.4542C115.376 59.4619 115.375 59.4629 115.376 59.46C115.378 59.4569 115.379 59.4549 115.379 59.455C115.379 59.4554 115.374 59.4613 115.36 59.4715L116.566 61.0675C117.111 60.6559 117.382 60.0621 117.382 59.3994H115.382ZM115.364 59.4689C115.31 59.5095 115.168 59.583 114.835 59.583V61.583C115.448 61.583 116.058 61.4476 116.562 61.0702L115.364 59.4689ZM114.835 59.583C114.63 59.583 114.471 59.5464 114.343 59.4897L113.534 61.3189C113.945 61.5004 114.384 61.583 114.835 61.583V59.583ZM114.349 59.4921C114.219 59.4337 114.169 59.3782 114.147 59.3456L112.494 60.4728C112.757 60.8581 113.12 61.1327 113.529 61.3165L114.349 59.4921ZM114.15 59.3509C114.131 59.3223 114.11 59.2785 114.11 59.1826H112.11C112.11 59.6375 112.229 60.0781 112.491 60.4675L114.15 59.3509ZM113.11 60.1826H113.991V58.1826H113.11V60.1826ZM112.991 59.1826C112.991 59.6235 113.132 60.1201 113.561 60.4791C113.955 60.8095 114.439 60.8887 114.835 60.8887V58.8887C114.761 58.8887 114.732 58.8806 114.735 58.8813C114.74 58.8828 114.786 58.8969 114.844 58.9452C114.906 58.9968 114.949 59.0614 114.973 59.1215C114.995 59.1754 114.991 59.2028 114.991 59.1826H112.991ZM114.835 60.8887C115.163 60.8887 115.559 60.8248 115.907 60.5755L114.742 58.9499C114.799 58.9088 114.847 58.8935 114.865 58.8888C114.882 58.8845 114.875 58.8887 114.835 58.8887V60.8887ZM115.916 60.5691C116.304 60.2843 116.5 59.8581 116.5 59.4053H114.5C114.5 59.351 114.511 59.2643 114.559 59.1676C114.607 59.0692 114.674 58.9994 114.733 58.9563L115.916 60.5691Z" fill="#828282"/>
</g>
</g>
<defs>
<filter id="filter0_d" x="0" y="0" width="178" height="98" filterUnits="userSpaceOnUse" color-interpolation-filters="sRGB">
<feFlood flood-opacity="0" result="BackgroundImageFix"/>
<feColorMatrix in="SourceAlpha" type="matrix" values="0 0 0 0 0 0 0 0 0 0 0 0 0 0 0 0 0 0 127 0"/>
<feOffset dy="4"/>
<feGaussianBlur stdDeviation="2"/>
<feColorMatrix type="matrix" values="0 0 0 0 0 0 0 0 0 0 0 0 0 0 0 0 0 0 0.25 0"/>
<feBlend mode="normal" in2="BackgroundImageFix" result="effect1_dropShadow"/>
<feBlend mode="normal" in="SourceGraphic" in2="effect1_dropShadow" result="shape"/>
</filter>
<filter id="filter1_d" x="0" y="0" width="178" height="98" filterUnits="userSpaceOnUse" color-interpolation-filters="sRGB">
<feFlood flood-opacity="0" result="BackgroundImageFix"/>
<feColorMatrix in="SourceAlpha" type="matrix" values="0 0 0 0 0 0 0 0 0 0 0 0 0 0 0 0 0 0 127 0"/>
<feOffset dy="4"/>
<feGaussianBlur stdDeviation="2"/>
<feColorMatrix type="matrix" values="0 0 0 0 0 0 0 0 0 0 0 0 0 0 0 0 0 0 0.25 0"/>
<feBlend mode="normal" in2="BackgroundImageFix" result="effect1_dropShadow"/>
<feBlend mode="normal" in="SourceGraphic" in2="effect1_dropShadow" result="shape"/>
</filter>
<filter id="filter2_d" x="53.303" y="36.8306" width="16.1952" height="15.9861" filterUnits="userSpaceOnUse" color-interpolation-filters="sRGB">
<feFlood flood-opacity="0" result="BackgroundImageFix"/>
<feColorMatrix in="SourceAlpha" type="matrix" values="0 0 0 0 0 0 0 0 0 0 0 0 0 0 0 0 0 0 127 0"/>
<feOffset dy="4"/>
<feGaussianBlur stdDeviation="2"/>
<feColorMatrix type="matrix" values="0 0 0 0 0 0 0 0 0 0 0 0 0 0 0 0 0 0 0.25 0"/>
<feBlend mode="normal" in2="BackgroundImageFix" result="effect1_dropShadow"/>
<feBlend mode="normal" in="SourceGraphic" in2="effect1_dropShadow" result="shape"/>
</filter>
<filter id="filter3_d" x="63.9233" y="24" width="31.7135" height="36.4402" filterUnits="userSpaceOnUse" color-interpolation-filters="sRGB">
<feFlood flood-opacity="0" result="BackgroundImageFix"/>
<feColorMatrix in="SourceAlpha" type="matrix" values="0 0 0 0 0 0 0 0 0 0 0 0 0 0 0 0 0 0 127 0"/>
<feOffset dy="4"/>
<feGaussianBlur stdDeviation="2"/>
<feColorMatrix type="matrix" values="0 0 0 0 0 0 0 0 0 0 0 0 0 0 0 0 0 0 0.25 0"/>
<feBlend mode="normal" in2="BackgroundImageFix" result="effect1_dropShadow"/>
<feBlend mode="normal" in="SourceGraphic" in2="effect1_dropShadow" result="shape"/>
</filter>
<filter id="filter4_d" x="45" y="46.2356" width="24.4985" height="27.7883" filterUnits="userSpaceOnUse" color-interpolation-filters="sRGB">
<feFlood flood-opacity="0" result="BackgroundImageFix"/>
<feColorMatrix in="SourceAlpha" type="matrix" values="0 0 0 0 0 0 0 0 0 0 0 0 0 0 0 0 0 0 127 0"/>
<feOffset dy="4"/>
<feGaussianBlur stdDeviation="2"/>
<feColorMatrix type="matrix" values="0 0 0 0 0 0 0 0 0 0 0 0 0 0 0 0 0 0 0.25 0"/>
<feBlend mode="normal" in2="BackgroundImageFix" result="effect1_dropShadow"/>
<feBlend mode="normal" in="SourceGraphic" in2="effect1_dropShadow" result="shape"/>
</filter>
<filter id="filter5_d" x="67.5227" y="56.2002" width="52.8594" height="12.3828" filterUnits="userSpaceOnUse" color-interpolation-filters="sRGB">
<feFlood flood-opacity="0" result="BackgroundImageFix"/>
<feColorMatrix in="SourceAlpha" type="matrix" values="0 0 0 0 0 0 0 0 0 0 0 0 0 0 0 0 0 0 127 0"/>
<feOffset dy="4"/>
<feGaussianBlur stdDeviation="2"/>
<feColorMatrix type="matrix" values="0 0 0 0 0 0 0 0 0 0 0 0 0 0 0 0 0 0 0.25 0"/>
<feBlend mode="normal" in2="BackgroundImageFix" result="effect1_dropShadow"/>
<feBlend mode="normal" in="SourceGraphic" in2="effect1_dropShadow" result="shape"/>
</filter>
</defs>
</svg>
