<svg width="17" height="10" viewBox="0 0 17 10" fill="none" xmlns="http://www.w3.org/2000/svg">
<path d="M14.9614 0.0896301H2.00455C1.18014 0.0896301 0.509521 0.633179 0.509521 1.30138V8.57182C0.509521 9.24002 1.18014 9.78357 2.00455 9.78357H14.9614C15.7858 9.78357 16.4564 9.24002 16.4564 8.57182V1.30138C16.4564 0.633179 15.7858 0.0896301 14.9614 0.0896301ZM14.9614 0.897454C15.0291 0.897454 15.0935 0.908839 15.1524 0.928724L8.48298 5.61386L1.81351 0.928724C1.8724 0.908866 1.93681 0.897454 2.00452 0.897454H14.9614ZM14.9614 8.97572H2.00455C1.7296 8.97572 1.5062 8.79468 1.5062 8.57179V1.7822L8.15642 6.45363C8.25036 6.51949 8.36667 6.55225 8.48298 6.55225C8.59929 6.55225 8.71559 6.51952 8.80953 6.45363L15.4598 1.7822V8.57182C15.4597 8.79468 15.2364 8.97572 14.9614 8.97572Z" fill="#2196F3"/>
</svg>
