<svg width="11" height="14" fill="none" xmlns="http://www.w3.org/2000/svg"><path d="M9.348.224H2.37C1.546.224.876.768.876 1.436v10.502c0 .668.67 1.211 1.495 1.211h6.977c.824 0 1.495-.543 1.495-1.211V1.436c0-.668-.671-1.212-1.495-1.212zm-6.977.808h6.977c.274 0 .498.181.498.404v8.482H1.872V1.436c0-.223.224-.404.499-.404zm6.977 11.31H2.37c-.275 0-.499-.181-.499-.404v-1.212h7.974v1.212c0 .223-.224.404-.498.404z" fill="#757575"/><path d="M3.222 11.248c.194.158.194.414 0 .572a.584.584 0 01-.705 0c-.195-.158-.195-.414 0-.572a.584.584 0 01.705 0z" fill="#757575"/></svg>